<mxfile host="app.diagrams.net" agent="Mozilla/5.0 (Windows NT 10.0; Win64; x64) AppleWebKit/537.36 (KHTML, like Gecko) Chrome/131.0.0.0 Safari/537.36 Edg/131.0.0.0" version="25.0.1">
  <diagram name="หน้า-1" id="XmQK2D80Lq1rRdNEfizT">
    <mxGraphModel dx="3207" dy="1067" grid="1" gridSize="10" guides="1" tooltips="1" connect="1" arrows="1" fold="1" page="1" pageScale="1" pageWidth="827" pageHeight="1169" math="0" shadow="0">
      <root>
        <mxCell id="0" />
        <mxCell id="1" parent="0" />
        <mxCell id="v022t3RNJI9IkPhm5vKd-1" value="" style="edgeStyle=orthogonalEdgeStyle;rounded=0;orthogonalLoop=1;jettySize=auto;html=1;" edge="1" parent="1" source="v022t3RNJI9IkPhm5vKd-2" target="v022t3RNJI9IkPhm5vKd-5">
          <mxGeometry relative="1" as="geometry" />
        </mxCell>
        <mxCell id="v022t3RNJI9IkPhm5vKd-2" value="เลขเป็นคำ" style="ellipse;whiteSpace=wrap;html=1;" vertex="1" parent="1">
          <mxGeometry x="-770" y="10" width="120" height="80" as="geometry" />
        </mxCell>
        <mxCell id="v022t3RNJI9IkPhm5vKd-4" value="" style="edgeStyle=orthogonalEdgeStyle;rounded=0;orthogonalLoop=1;jettySize=auto;html=1;" edge="1" parent="1" source="v022t3RNJI9IkPhm5vKd-5" target="v022t3RNJI9IkPhm5vKd-9">
          <mxGeometry relative="1" as="geometry" />
        </mxCell>
        <mxCell id="v022t3RNJI9IkPhm5vKd-5" value="ข้อมูล User" style="shape=parallelogram;perimeter=parallelogramPerimeter;whiteSpace=wrap;html=1;fixedSize=1;" vertex="1" parent="1">
          <mxGeometry x="-805" y="120" width="190" height="60" as="geometry" />
        </mxCell>
        <mxCell id="v022t3RNJI9IkPhm5vKd-6" value="" style="edgeStyle=orthogonalEdgeStyle;rounded=0;orthogonalLoop=1;jettySize=auto;html=1;" edge="1" parent="1" source="v022t3RNJI9IkPhm5vKd-9" target="v022t3RNJI9IkPhm5vKd-12">
          <mxGeometry relative="1" as="geometry" />
        </mxCell>
        <mxCell id="v022t3RNJI9IkPhm5vKd-7" value="" style="edgeStyle=orthogonalEdgeStyle;rounded=0;orthogonalLoop=1;jettySize=auto;html=1;" edge="1" parent="1" source="v022t3RNJI9IkPhm5vKd-9" target="v022t3RNJI9IkPhm5vKd-57">
          <mxGeometry relative="1" as="geometry" />
        </mxCell>
        <mxCell id="v022t3RNJI9IkPhm5vKd-8" value="" style="edgeStyle=orthogonalEdgeStyle;rounded=0;orthogonalLoop=1;jettySize=auto;html=1;" edge="1" parent="1" source="v022t3RNJI9IkPhm5vKd-122" target="v022t3RNJI9IkPhm5vKd-57">
          <mxGeometry relative="1" as="geometry" />
        </mxCell>
        <mxCell id="v022t3RNJI9IkPhm5vKd-9" value="ค่าที่ได้เป็นเลข 0" style="rhombus;whiteSpace=wrap;html=1;" vertex="1" parent="1">
          <mxGeometry x="-770" y="210" width="120" height="100" as="geometry" />
        </mxCell>
        <mxCell id="v022t3RNJI9IkPhm5vKd-10" value="" style="edgeStyle=orthogonalEdgeStyle;rounded=0;orthogonalLoop=1;jettySize=auto;html=1;" edge="1" parent="1" source="v022t3RNJI9IkPhm5vKd-12" target="v022t3RNJI9IkPhm5vKd-15">
          <mxGeometry relative="1" as="geometry" />
        </mxCell>
        <mxCell id="v022t3RNJI9IkPhm5vKd-11" value="" style="edgeStyle=orthogonalEdgeStyle;rounded=0;orthogonalLoop=1;jettySize=auto;html=1;" edge="1" parent="1" source="v022t3RNJI9IkPhm5vKd-124" target="v022t3RNJI9IkPhm5vKd-59">
          <mxGeometry relative="1" as="geometry" />
        </mxCell>
        <mxCell id="v022t3RNJI9IkPhm5vKd-12" value="ค่าที่ได้เป็นเลข 1" style="rhombus;whiteSpace=wrap;html=1;" vertex="1" parent="1">
          <mxGeometry x="-770" y="340" width="120" height="100" as="geometry" />
        </mxCell>
        <mxCell id="v022t3RNJI9IkPhm5vKd-13" value="" style="edgeStyle=orthogonalEdgeStyle;rounded=0;orthogonalLoop=1;jettySize=auto;html=1;" edge="1" parent="1" source="v022t3RNJI9IkPhm5vKd-15" target="v022t3RNJI9IkPhm5vKd-19">
          <mxGeometry relative="1" as="geometry" />
        </mxCell>
        <mxCell id="v022t3RNJI9IkPhm5vKd-14" value="" style="edgeStyle=orthogonalEdgeStyle;rounded=0;orthogonalLoop=1;jettySize=auto;html=1;" edge="1" parent="1" source="v022t3RNJI9IkPhm5vKd-127" target="v022t3RNJI9IkPhm5vKd-61">
          <mxGeometry relative="1" as="geometry" />
        </mxCell>
        <mxCell id="v022t3RNJI9IkPhm5vKd-15" value="ค่าที่ได้เป็นเลข 2" style="rhombus;whiteSpace=wrap;html=1;" vertex="1" parent="1">
          <mxGeometry x="-770" y="470" width="120" height="100" as="geometry" />
        </mxCell>
        <mxCell id="v022t3RNJI9IkPhm5vKd-16" value="" style="edgeStyle=orthogonalEdgeStyle;rounded=0;orthogonalLoop=1;jettySize=auto;html=1;" edge="1" parent="1" source="v022t3RNJI9IkPhm5vKd-19" target="v022t3RNJI9IkPhm5vKd-25">
          <mxGeometry relative="1" as="geometry" />
        </mxCell>
        <mxCell id="v022t3RNJI9IkPhm5vKd-17" value="" style="edgeStyle=orthogonalEdgeStyle;rounded=0;orthogonalLoop=1;jettySize=auto;html=1;" edge="1" parent="1" source="v022t3RNJI9IkPhm5vKd-19" target="v022t3RNJI9IkPhm5vKd-63">
          <mxGeometry relative="1" as="geometry" />
        </mxCell>
        <mxCell id="v022t3RNJI9IkPhm5vKd-18" value="" style="edgeStyle=orthogonalEdgeStyle;rounded=0;orthogonalLoop=1;jettySize=auto;html=1;" edge="1" parent="1" source="v022t3RNJI9IkPhm5vKd-129" target="v022t3RNJI9IkPhm5vKd-63">
          <mxGeometry relative="1" as="geometry" />
        </mxCell>
        <mxCell id="v022t3RNJI9IkPhm5vKd-19" value="ค่าที่ได้เป็นเลข 3" style="rhombus;whiteSpace=wrap;html=1;" vertex="1" parent="1">
          <mxGeometry x="-770" y="600" width="120" height="100" as="geometry" />
        </mxCell>
        <mxCell id="v022t3RNJI9IkPhm5vKd-20" value="" style="edgeStyle=orthogonalEdgeStyle;rounded=0;orthogonalLoop=1;jettySize=auto;html=1;" edge="1" parent="1" source="v022t3RNJI9IkPhm5vKd-22" target="v022t3RNJI9IkPhm5vKd-31">
          <mxGeometry relative="1" as="geometry" />
        </mxCell>
        <mxCell id="v022t3RNJI9IkPhm5vKd-21" value="" style="edgeStyle=orthogonalEdgeStyle;rounded=0;orthogonalLoop=1;jettySize=auto;html=1;" edge="1" parent="1" source="v022t3RNJI9IkPhm5vKd-133" target="v022t3RNJI9IkPhm5vKd-67">
          <mxGeometry relative="1" as="geometry" />
        </mxCell>
        <mxCell id="v022t3RNJI9IkPhm5vKd-22" value="ค่าที่ได้เป็นเลข 5" style="rhombus;whiteSpace=wrap;html=1;" vertex="1" parent="1">
          <mxGeometry x="-770" y="850" width="120" height="100" as="geometry" />
        </mxCell>
        <mxCell id="v022t3RNJI9IkPhm5vKd-23" value="" style="edgeStyle=orthogonalEdgeStyle;rounded=0;orthogonalLoop=1;jettySize=auto;html=1;" edge="1" parent="1" source="v022t3RNJI9IkPhm5vKd-25" target="v022t3RNJI9IkPhm5vKd-22">
          <mxGeometry relative="1" as="geometry" />
        </mxCell>
        <mxCell id="v022t3RNJI9IkPhm5vKd-24" value="" style="edgeStyle=orthogonalEdgeStyle;rounded=0;orthogonalLoop=1;jettySize=auto;html=1;" edge="1" parent="1" source="v022t3RNJI9IkPhm5vKd-131" target="v022t3RNJI9IkPhm5vKd-65">
          <mxGeometry relative="1" as="geometry" />
        </mxCell>
        <mxCell id="v022t3RNJI9IkPhm5vKd-25" value="ค่าที่ได้เป็นเลข 4" style="rhombus;whiteSpace=wrap;html=1;" vertex="1" parent="1">
          <mxGeometry x="-770" y="730" width="120" height="100" as="geometry" />
        </mxCell>
        <mxCell id="v022t3RNJI9IkPhm5vKd-26" value="" style="edgeStyle=orthogonalEdgeStyle;rounded=0;orthogonalLoop=1;jettySize=auto;html=1;" edge="1" parent="1" source="v022t3RNJI9IkPhm5vKd-28" target="v022t3RNJI9IkPhm5vKd-34">
          <mxGeometry relative="1" as="geometry" />
        </mxCell>
        <mxCell id="v022t3RNJI9IkPhm5vKd-27" value="" style="edgeStyle=orthogonalEdgeStyle;rounded=0;orthogonalLoop=1;jettySize=auto;html=1;" edge="1" parent="1" source="v022t3RNJI9IkPhm5vKd-137" target="v022t3RNJI9IkPhm5vKd-71">
          <mxGeometry relative="1" as="geometry" />
        </mxCell>
        <mxCell id="v022t3RNJI9IkPhm5vKd-28" value="ค่าที่ได้เป็นเลข 7" style="rhombus;whiteSpace=wrap;html=1;" vertex="1" parent="1">
          <mxGeometry x="-770" y="1110" width="120" height="100" as="geometry" />
        </mxCell>
        <mxCell id="v022t3RNJI9IkPhm5vKd-29" value="" style="edgeStyle=orthogonalEdgeStyle;rounded=0;orthogonalLoop=1;jettySize=auto;html=1;" edge="1" parent="1" source="v022t3RNJI9IkPhm5vKd-31" target="v022t3RNJI9IkPhm5vKd-28">
          <mxGeometry relative="1" as="geometry" />
        </mxCell>
        <mxCell id="v022t3RNJI9IkPhm5vKd-30" value="" style="edgeStyle=orthogonalEdgeStyle;rounded=0;orthogonalLoop=1;jettySize=auto;html=1;" edge="1" parent="1" source="v022t3RNJI9IkPhm5vKd-135" target="v022t3RNJI9IkPhm5vKd-69">
          <mxGeometry relative="1" as="geometry" />
        </mxCell>
        <mxCell id="v022t3RNJI9IkPhm5vKd-31" value="ค่าที่ได้เป็นเลข 6" style="rhombus;whiteSpace=wrap;html=1;" vertex="1" parent="1">
          <mxGeometry x="-770" y="980" width="120" height="100" as="geometry" />
        </mxCell>
        <mxCell id="v022t3RNJI9IkPhm5vKd-32" value="" style="edgeStyle=orthogonalEdgeStyle;rounded=0;orthogonalLoop=1;jettySize=auto;html=1;" edge="1" parent="1" source="v022t3RNJI9IkPhm5vKd-34" target="v022t3RNJI9IkPhm5vKd-37">
          <mxGeometry relative="1" as="geometry" />
        </mxCell>
        <mxCell id="v022t3RNJI9IkPhm5vKd-33" value="" style="edgeStyle=orthogonalEdgeStyle;rounded=0;orthogonalLoop=1;jettySize=auto;html=1;" edge="1" parent="1" source="v022t3RNJI9IkPhm5vKd-139" target="v022t3RNJI9IkPhm5vKd-73">
          <mxGeometry relative="1" as="geometry" />
        </mxCell>
        <mxCell id="v022t3RNJI9IkPhm5vKd-34" value="ค่าที่ได้เป็นเลข 8" style="rhombus;whiteSpace=wrap;html=1;" vertex="1" parent="1">
          <mxGeometry x="-770" y="1250" width="120" height="100" as="geometry" />
        </mxCell>
        <mxCell id="v022t3RNJI9IkPhm5vKd-35" value="" style="edgeStyle=orthogonalEdgeStyle;rounded=0;orthogonalLoop=1;jettySize=auto;html=1;" edge="1" parent="1" source="v022t3RNJI9IkPhm5vKd-37" target="v022t3RNJI9IkPhm5vKd-40">
          <mxGeometry relative="1" as="geometry" />
        </mxCell>
        <mxCell id="v022t3RNJI9IkPhm5vKd-36" value="" style="edgeStyle=orthogonalEdgeStyle;rounded=0;orthogonalLoop=1;jettySize=auto;html=1;" edge="1" parent="1" source="v022t3RNJI9IkPhm5vKd-141" target="v022t3RNJI9IkPhm5vKd-75">
          <mxGeometry relative="1" as="geometry" />
        </mxCell>
        <mxCell id="v022t3RNJI9IkPhm5vKd-37" value="ค่าที่ได้เป็นเลข 9" style="rhombus;whiteSpace=wrap;html=1;" vertex="1" parent="1">
          <mxGeometry x="-770" y="1400" width="120" height="100" as="geometry" />
        </mxCell>
        <mxCell id="v022t3RNJI9IkPhm5vKd-38" value="" style="edgeStyle=orthogonalEdgeStyle;rounded=0;orthogonalLoop=1;jettySize=auto;html=1;" edge="1" parent="1" source="v022t3RNJI9IkPhm5vKd-40" target="v022t3RNJI9IkPhm5vKd-43">
          <mxGeometry relative="1" as="geometry" />
        </mxCell>
        <mxCell id="v022t3RNJI9IkPhm5vKd-39" value="" style="edgeStyle=orthogonalEdgeStyle;rounded=0;orthogonalLoop=1;jettySize=auto;html=1;" edge="1" parent="1" source="v022t3RNJI9IkPhm5vKd-143" target="v022t3RNJI9IkPhm5vKd-77">
          <mxGeometry relative="1" as="geometry" />
        </mxCell>
        <mxCell id="v022t3RNJI9IkPhm5vKd-40" value="ค่าที่ได้เป็นเลข A/a" style="rhombus;whiteSpace=wrap;html=1;" vertex="1" parent="1">
          <mxGeometry x="-770" y="1540" width="120" height="100" as="geometry" />
        </mxCell>
        <mxCell id="v022t3RNJI9IkPhm5vKd-41" value="" style="edgeStyle=orthogonalEdgeStyle;rounded=0;orthogonalLoop=1;jettySize=auto;html=1;" edge="1" parent="1" source="v022t3RNJI9IkPhm5vKd-43" target="v022t3RNJI9IkPhm5vKd-46">
          <mxGeometry relative="1" as="geometry" />
        </mxCell>
        <mxCell id="v022t3RNJI9IkPhm5vKd-42" value="" style="edgeStyle=orthogonalEdgeStyle;rounded=0;orthogonalLoop=1;jettySize=auto;html=1;" edge="1" parent="1" source="v022t3RNJI9IkPhm5vKd-145" target="v022t3RNJI9IkPhm5vKd-79">
          <mxGeometry relative="1" as="geometry" />
        </mxCell>
        <mxCell id="v022t3RNJI9IkPhm5vKd-43" value="ค่าที่ได้เป็นเลข B/b" style="rhombus;whiteSpace=wrap;html=1;" vertex="1" parent="1">
          <mxGeometry x="-770" y="1680" width="120" height="100" as="geometry" />
        </mxCell>
        <mxCell id="v022t3RNJI9IkPhm5vKd-44" value="" style="edgeStyle=orthogonalEdgeStyle;rounded=0;orthogonalLoop=1;jettySize=auto;html=1;" edge="1" parent="1" source="v022t3RNJI9IkPhm5vKd-46" target="v022t3RNJI9IkPhm5vKd-49">
          <mxGeometry relative="1" as="geometry" />
        </mxCell>
        <mxCell id="v022t3RNJI9IkPhm5vKd-45" value="" style="edgeStyle=orthogonalEdgeStyle;rounded=0;orthogonalLoop=1;jettySize=auto;html=1;" edge="1" parent="1" source="v022t3RNJI9IkPhm5vKd-147" target="v022t3RNJI9IkPhm5vKd-81">
          <mxGeometry relative="1" as="geometry" />
        </mxCell>
        <mxCell id="v022t3RNJI9IkPhm5vKd-46" value="ค่าที่ได้เป็นเลข C/c" style="rhombus;whiteSpace=wrap;html=1;" vertex="1" parent="1">
          <mxGeometry x="-770" y="1820" width="120" height="100" as="geometry" />
        </mxCell>
        <mxCell id="v022t3RNJI9IkPhm5vKd-47" value="" style="edgeStyle=orthogonalEdgeStyle;rounded=0;orthogonalLoop=1;jettySize=auto;html=1;" edge="1" parent="1" source="v022t3RNJI9IkPhm5vKd-49" target="v022t3RNJI9IkPhm5vKd-52">
          <mxGeometry relative="1" as="geometry" />
        </mxCell>
        <mxCell id="v022t3RNJI9IkPhm5vKd-48" value="" style="edgeStyle=orthogonalEdgeStyle;rounded=0;orthogonalLoop=1;jettySize=auto;html=1;" edge="1" parent="1" source="v022t3RNJI9IkPhm5vKd-149" target="v022t3RNJI9IkPhm5vKd-83">
          <mxGeometry relative="1" as="geometry" />
        </mxCell>
        <mxCell id="v022t3RNJI9IkPhm5vKd-49" value="ค่าที่ได้เป็นเลขD/d" style="rhombus;whiteSpace=wrap;html=1;" vertex="1" parent="1">
          <mxGeometry x="-770" y="1960" width="120" height="100" as="geometry" />
        </mxCell>
        <mxCell id="v022t3RNJI9IkPhm5vKd-50" value="" style="edgeStyle=orthogonalEdgeStyle;rounded=0;orthogonalLoop=1;jettySize=auto;html=1;" edge="1" parent="1" source="v022t3RNJI9IkPhm5vKd-52" target="v022t3RNJI9IkPhm5vKd-55">
          <mxGeometry relative="1" as="geometry" />
        </mxCell>
        <mxCell id="v022t3RNJI9IkPhm5vKd-51" value="" style="edgeStyle=orthogonalEdgeStyle;rounded=0;orthogonalLoop=1;jettySize=auto;html=1;" edge="1" parent="1" source="v022t3RNJI9IkPhm5vKd-151" target="v022t3RNJI9IkPhm5vKd-85">
          <mxGeometry relative="1" as="geometry" />
        </mxCell>
        <mxCell id="v022t3RNJI9IkPhm5vKd-52" value="ค่าที่ได้เป็นเลขE/e" style="rhombus;whiteSpace=wrap;html=1;" vertex="1" parent="1">
          <mxGeometry x="-770" y="2090" width="120" height="100" as="geometry" />
        </mxCell>
        <mxCell id="v022t3RNJI9IkPhm5vKd-53" value="" style="edgeStyle=orthogonalEdgeStyle;rounded=0;orthogonalLoop=1;jettySize=auto;html=1;entryX=0.496;entryY=-0.018;entryDx=0;entryDy=0;entryPerimeter=0;" edge="1" parent="1" source="v022t3RNJI9IkPhm5vKd-55" target="v022t3RNJI9IkPhm5vKd-157">
          <mxGeometry relative="1" as="geometry">
            <mxPoint x="-710" y="2360" as="targetPoint" />
          </mxGeometry>
        </mxCell>
        <mxCell id="v022t3RNJI9IkPhm5vKd-54" value="" style="edgeStyle=orthogonalEdgeStyle;rounded=0;orthogonalLoop=1;jettySize=auto;html=1;" edge="1" parent="1" source="v022t3RNJI9IkPhm5vKd-153" target="v022t3RNJI9IkPhm5vKd-87">
          <mxGeometry relative="1" as="geometry" />
        </mxCell>
        <mxCell id="v022t3RNJI9IkPhm5vKd-55" value="ค่าที่ได้เป็นเลขF/f" style="rhombus;whiteSpace=wrap;html=1;" vertex="1" parent="1">
          <mxGeometry x="-770" y="2220" width="120" height="100" as="geometry" />
        </mxCell>
        <mxCell id="v022t3RNJI9IkPhm5vKd-56" value="" style="edgeStyle=orthogonalEdgeStyle;rounded=0;orthogonalLoop=1;jettySize=auto;html=1;" edge="1" parent="1" source="v022t3RNJI9IkPhm5vKd-57" target="v022t3RNJI9IkPhm5vKd-59">
          <mxGeometry relative="1" as="geometry" />
        </mxCell>
        <mxCell id="v022t3RNJI9IkPhm5vKd-57" value="" style="ellipse;whiteSpace=wrap;html=1;aspect=fixed;" vertex="1" parent="1">
          <mxGeometry x="-330" y="247.5" width="25" height="25" as="geometry" />
        </mxCell>
        <mxCell id="v022t3RNJI9IkPhm5vKd-58" value="" style="edgeStyle=orthogonalEdgeStyle;rounded=0;orthogonalLoop=1;jettySize=auto;html=1;" edge="1" parent="1" source="v022t3RNJI9IkPhm5vKd-59" target="v022t3RNJI9IkPhm5vKd-61">
          <mxGeometry relative="1" as="geometry" />
        </mxCell>
        <mxCell id="v022t3RNJI9IkPhm5vKd-59" value="" style="ellipse;whiteSpace=wrap;html=1;aspect=fixed;" vertex="1" parent="1">
          <mxGeometry x="-330" y="377.5" width="25" height="25" as="geometry" />
        </mxCell>
        <mxCell id="v022t3RNJI9IkPhm5vKd-60" value="" style="edgeStyle=orthogonalEdgeStyle;rounded=0;orthogonalLoop=1;jettySize=auto;html=1;" edge="1" parent="1" source="v022t3RNJI9IkPhm5vKd-61" target="v022t3RNJI9IkPhm5vKd-63">
          <mxGeometry relative="1" as="geometry" />
        </mxCell>
        <mxCell id="v022t3RNJI9IkPhm5vKd-61" value="" style="ellipse;whiteSpace=wrap;html=1;aspect=fixed;" vertex="1" parent="1">
          <mxGeometry x="-330" y="507.5" width="25" height="25" as="geometry" />
        </mxCell>
        <mxCell id="v022t3RNJI9IkPhm5vKd-62" value="" style="edgeStyle=orthogonalEdgeStyle;rounded=0;orthogonalLoop=1;jettySize=auto;html=1;" edge="1" parent="1" source="v022t3RNJI9IkPhm5vKd-63" target="v022t3RNJI9IkPhm5vKd-65">
          <mxGeometry relative="1" as="geometry" />
        </mxCell>
        <mxCell id="v022t3RNJI9IkPhm5vKd-63" value="" style="ellipse;whiteSpace=wrap;html=1;aspect=fixed;" vertex="1" parent="1">
          <mxGeometry x="-330" y="637.5" width="25" height="25" as="geometry" />
        </mxCell>
        <mxCell id="v022t3RNJI9IkPhm5vKd-64" value="" style="edgeStyle=orthogonalEdgeStyle;rounded=0;orthogonalLoop=1;jettySize=auto;html=1;" edge="1" parent="1" source="v022t3RNJI9IkPhm5vKd-65" target="v022t3RNJI9IkPhm5vKd-67">
          <mxGeometry relative="1" as="geometry" />
        </mxCell>
        <mxCell id="v022t3RNJI9IkPhm5vKd-65" value="" style="ellipse;whiteSpace=wrap;html=1;aspect=fixed;" vertex="1" parent="1">
          <mxGeometry x="-328.75" y="768.75" width="22.5" height="22.5" as="geometry" />
        </mxCell>
        <mxCell id="v022t3RNJI9IkPhm5vKd-66" value="" style="edgeStyle=orthogonalEdgeStyle;rounded=0;orthogonalLoop=1;jettySize=auto;html=1;" edge="1" parent="1" source="v022t3RNJI9IkPhm5vKd-67" target="v022t3RNJI9IkPhm5vKd-69">
          <mxGeometry relative="1" as="geometry" />
        </mxCell>
        <mxCell id="v022t3RNJI9IkPhm5vKd-67" value="" style="ellipse;whiteSpace=wrap;html=1;aspect=fixed;" vertex="1" parent="1">
          <mxGeometry x="-330" y="887.5" width="25" height="25" as="geometry" />
        </mxCell>
        <mxCell id="v022t3RNJI9IkPhm5vKd-68" value="" style="edgeStyle=orthogonalEdgeStyle;rounded=0;orthogonalLoop=1;jettySize=auto;html=1;" edge="1" parent="1" source="v022t3RNJI9IkPhm5vKd-69" target="v022t3RNJI9IkPhm5vKd-71">
          <mxGeometry relative="1" as="geometry" />
        </mxCell>
        <mxCell id="v022t3RNJI9IkPhm5vKd-69" value="" style="ellipse;whiteSpace=wrap;html=1;aspect=fixed;" vertex="1" parent="1">
          <mxGeometry x="-330" y="1017.5" width="25" height="25" as="geometry" />
        </mxCell>
        <mxCell id="v022t3RNJI9IkPhm5vKd-70" value="" style="edgeStyle=orthogonalEdgeStyle;rounded=0;orthogonalLoop=1;jettySize=auto;html=1;" edge="1" parent="1" source="v022t3RNJI9IkPhm5vKd-71" target="v022t3RNJI9IkPhm5vKd-73">
          <mxGeometry relative="1" as="geometry" />
        </mxCell>
        <mxCell id="v022t3RNJI9IkPhm5vKd-71" value="" style="ellipse;whiteSpace=wrap;html=1;aspect=fixed;" vertex="1" parent="1">
          <mxGeometry x="-330" y="1147.5" width="25" height="25" as="geometry" />
        </mxCell>
        <mxCell id="v022t3RNJI9IkPhm5vKd-72" style="edgeStyle=orthogonalEdgeStyle;rounded=0;orthogonalLoop=1;jettySize=auto;html=1;entryX=0.5;entryY=0;entryDx=0;entryDy=0;" edge="1" parent="1" source="v022t3RNJI9IkPhm5vKd-73" target="v022t3RNJI9IkPhm5vKd-75">
          <mxGeometry relative="1" as="geometry" />
        </mxCell>
        <mxCell id="v022t3RNJI9IkPhm5vKd-73" value="" style="ellipse;whiteSpace=wrap;html=1;aspect=fixed;" vertex="1" parent="1">
          <mxGeometry x="-330" y="1287.5" width="25" height="25" as="geometry" />
        </mxCell>
        <mxCell id="v022t3RNJI9IkPhm5vKd-74" value="" style="edgeStyle=orthogonalEdgeStyle;rounded=0;orthogonalLoop=1;jettySize=auto;html=1;" edge="1" parent="1" source="v022t3RNJI9IkPhm5vKd-75" target="v022t3RNJI9IkPhm5vKd-77">
          <mxGeometry relative="1" as="geometry" />
        </mxCell>
        <mxCell id="v022t3RNJI9IkPhm5vKd-75" value="" style="ellipse;whiteSpace=wrap;html=1;aspect=fixed;" vertex="1" parent="1">
          <mxGeometry x="-330" y="1437.5" width="25" height="25" as="geometry" />
        </mxCell>
        <mxCell id="v022t3RNJI9IkPhm5vKd-76" value="" style="edgeStyle=orthogonalEdgeStyle;rounded=0;orthogonalLoop=1;jettySize=auto;html=1;" edge="1" parent="1" source="v022t3RNJI9IkPhm5vKd-77" target="v022t3RNJI9IkPhm5vKd-79">
          <mxGeometry relative="1" as="geometry" />
        </mxCell>
        <mxCell id="v022t3RNJI9IkPhm5vKd-77" value="" style="ellipse;whiteSpace=wrap;html=1;aspect=fixed;" vertex="1" parent="1">
          <mxGeometry x="-330" y="1577.5" width="25" height="25" as="geometry" />
        </mxCell>
        <mxCell id="v022t3RNJI9IkPhm5vKd-78" value="" style="edgeStyle=orthogonalEdgeStyle;rounded=0;orthogonalLoop=1;jettySize=auto;html=1;" edge="1" parent="1" source="v022t3RNJI9IkPhm5vKd-79" target="v022t3RNJI9IkPhm5vKd-81">
          <mxGeometry relative="1" as="geometry" />
        </mxCell>
        <mxCell id="v022t3RNJI9IkPhm5vKd-79" value="" style="ellipse;whiteSpace=wrap;html=1;aspect=fixed;" vertex="1" parent="1">
          <mxGeometry x="-330" y="1717.5" width="25" height="25" as="geometry" />
        </mxCell>
        <mxCell id="v022t3RNJI9IkPhm5vKd-80" value="" style="edgeStyle=orthogonalEdgeStyle;rounded=0;orthogonalLoop=1;jettySize=auto;html=1;" edge="1" parent="1" source="v022t3RNJI9IkPhm5vKd-81" target="v022t3RNJI9IkPhm5vKd-83">
          <mxGeometry relative="1" as="geometry" />
        </mxCell>
        <mxCell id="v022t3RNJI9IkPhm5vKd-81" value="" style="ellipse;whiteSpace=wrap;html=1;aspect=fixed;" vertex="1" parent="1">
          <mxGeometry x="-330" y="1857.5" width="25" height="25" as="geometry" />
        </mxCell>
        <mxCell id="v022t3RNJI9IkPhm5vKd-82" value="" style="edgeStyle=orthogonalEdgeStyle;rounded=0;orthogonalLoop=1;jettySize=auto;html=1;" edge="1" parent="1" source="v022t3RNJI9IkPhm5vKd-83" target="v022t3RNJI9IkPhm5vKd-85">
          <mxGeometry relative="1" as="geometry" />
        </mxCell>
        <mxCell id="v022t3RNJI9IkPhm5vKd-83" value="" style="ellipse;whiteSpace=wrap;html=1;aspect=fixed;" vertex="1" parent="1">
          <mxGeometry x="-330" y="1997.5" width="25" height="25" as="geometry" />
        </mxCell>
        <mxCell id="v022t3RNJI9IkPhm5vKd-84" value="" style="edgeStyle=orthogonalEdgeStyle;rounded=0;orthogonalLoop=1;jettySize=auto;html=1;" edge="1" parent="1" source="v022t3RNJI9IkPhm5vKd-85" target="v022t3RNJI9IkPhm5vKd-87">
          <mxGeometry relative="1" as="geometry" />
        </mxCell>
        <mxCell id="v022t3RNJI9IkPhm5vKd-85" value="" style="ellipse;whiteSpace=wrap;html=1;aspect=fixed;" vertex="1" parent="1">
          <mxGeometry x="-330" y="2127.5" width="25" height="25" as="geometry" />
        </mxCell>
        <mxCell id="v022t3RNJI9IkPhm5vKd-291" style="edgeStyle=orthogonalEdgeStyle;rounded=0;orthogonalLoop=1;jettySize=auto;html=1;entryX=0.5;entryY=0;entryDx=0;entryDy=0;" edge="1" parent="1" source="v022t3RNJI9IkPhm5vKd-87" target="v022t3RNJI9IkPhm5vKd-202">
          <mxGeometry relative="1" as="geometry" />
        </mxCell>
        <mxCell id="v022t3RNJI9IkPhm5vKd-87" value="" style="ellipse;whiteSpace=wrap;html=1;aspect=fixed;" vertex="1" parent="1">
          <mxGeometry x="-330" y="2257.5" width="25" height="25" as="geometry" />
        </mxCell>
        <mxCell id="v022t3RNJI9IkPhm5vKd-90" value="N" style="text;html=1;align=center;verticalAlign=middle;whiteSpace=wrap;rounded=0;" vertex="1" parent="1">
          <mxGeometry x="-720" y="305" width="60" height="30" as="geometry" />
        </mxCell>
        <mxCell id="v022t3RNJI9IkPhm5vKd-91" value="N" style="text;html=1;align=center;verticalAlign=middle;whiteSpace=wrap;rounded=0;" vertex="1" parent="1">
          <mxGeometry x="-720" y="430" width="60" height="30" as="geometry" />
        </mxCell>
        <mxCell id="v022t3RNJI9IkPhm5vKd-92" value="N" style="text;html=1;align=center;verticalAlign=middle;whiteSpace=wrap;rounded=0;" vertex="1" parent="1">
          <mxGeometry x="-720" y="570" width="60" height="30" as="geometry" />
        </mxCell>
        <mxCell id="v022t3RNJI9IkPhm5vKd-93" value="N" style="text;html=1;align=center;verticalAlign=middle;whiteSpace=wrap;rounded=0;" vertex="1" parent="1">
          <mxGeometry x="-720" y="690" width="60" height="30" as="geometry" />
        </mxCell>
        <mxCell id="v022t3RNJI9IkPhm5vKd-94" value="N" style="text;html=1;align=center;verticalAlign=middle;whiteSpace=wrap;rounded=0;" vertex="1" parent="1">
          <mxGeometry x="-720" y="820" width="60" height="30" as="geometry" />
        </mxCell>
        <mxCell id="v022t3RNJI9IkPhm5vKd-95" value="N" style="text;html=1;align=center;verticalAlign=middle;whiteSpace=wrap;rounded=0;" vertex="1" parent="1">
          <mxGeometry x="-720" y="940" width="60" height="30" as="geometry" />
        </mxCell>
        <mxCell id="v022t3RNJI9IkPhm5vKd-96" value="N" style="text;html=1;align=center;verticalAlign=middle;whiteSpace=wrap;rounded=0;" vertex="1" parent="1">
          <mxGeometry x="-720" y="1070" width="60" height="30" as="geometry" />
        </mxCell>
        <mxCell id="v022t3RNJI9IkPhm5vKd-97" value="N" style="text;html=1;align=center;verticalAlign=middle;whiteSpace=wrap;rounded=0;" vertex="1" parent="1">
          <mxGeometry x="-720" y="1210" width="60" height="30" as="geometry" />
        </mxCell>
        <mxCell id="v022t3RNJI9IkPhm5vKd-98" value="N" style="text;html=1;align=center;verticalAlign=middle;whiteSpace=wrap;rounded=0;" vertex="1" parent="1">
          <mxGeometry x="-720" y="1350" width="60" height="30" as="geometry" />
        </mxCell>
        <mxCell id="v022t3RNJI9IkPhm5vKd-99" value="N" style="text;html=1;align=center;verticalAlign=middle;whiteSpace=wrap;rounded=0;" vertex="1" parent="1">
          <mxGeometry x="-720" y="1490" width="60" height="30" as="geometry" />
        </mxCell>
        <mxCell id="v022t3RNJI9IkPhm5vKd-100" value="N" style="text;html=1;align=center;verticalAlign=middle;whiteSpace=wrap;rounded=0;" vertex="1" parent="1">
          <mxGeometry x="-720" y="1630" width="60" height="30" as="geometry" />
        </mxCell>
        <mxCell id="v022t3RNJI9IkPhm5vKd-101" value="N" style="text;html=1;align=center;verticalAlign=middle;whiteSpace=wrap;rounded=0;" vertex="1" parent="1">
          <mxGeometry x="-720" y="1770" width="60" height="30" as="geometry" />
        </mxCell>
        <mxCell id="v022t3RNJI9IkPhm5vKd-102" value="N" style="text;html=1;align=center;verticalAlign=middle;whiteSpace=wrap;rounded=0;" vertex="1" parent="1">
          <mxGeometry x="-720" y="1910" width="60" height="30" as="geometry" />
        </mxCell>
        <mxCell id="v022t3RNJI9IkPhm5vKd-103" value="N" style="text;html=1;align=center;verticalAlign=middle;whiteSpace=wrap;rounded=0;" vertex="1" parent="1">
          <mxGeometry x="-720" y="2050" width="60" height="30" as="geometry" />
        </mxCell>
        <mxCell id="v022t3RNJI9IkPhm5vKd-104" value="N" style="text;html=1;align=center;verticalAlign=middle;whiteSpace=wrap;rounded=0;" vertex="1" parent="1">
          <mxGeometry x="-720" y="2180" width="60" height="30" as="geometry" />
        </mxCell>
        <mxCell id="v022t3RNJI9IkPhm5vKd-105" value="N" style="text;html=1;align=center;verticalAlign=middle;whiteSpace=wrap;rounded=0;" vertex="1" parent="1">
          <mxGeometry x="-720" y="2308" width="60" height="30" as="geometry" />
        </mxCell>
        <mxCell id="v022t3RNJI9IkPhm5vKd-106" value="Y" style="text;html=1;align=center;verticalAlign=middle;whiteSpace=wrap;rounded=0;" vertex="1" parent="1">
          <mxGeometry x="-670" y="2227.5" width="60" height="30" as="geometry" />
        </mxCell>
        <mxCell id="v022t3RNJI9IkPhm5vKd-107" value="Y" style="text;html=1;align=center;verticalAlign=middle;whiteSpace=wrap;rounded=0;" vertex="1" parent="1">
          <mxGeometry x="-670" y="1980" width="60" height="30" as="geometry" />
        </mxCell>
        <mxCell id="v022t3RNJI9IkPhm5vKd-108" value="Y" style="text;html=1;align=center;verticalAlign=middle;whiteSpace=wrap;rounded=0;" vertex="1" parent="1">
          <mxGeometry x="-670" y="1827.5" width="60" height="30" as="geometry" />
        </mxCell>
        <mxCell id="v022t3RNJI9IkPhm5vKd-109" value="Y" style="text;html=1;align=center;verticalAlign=middle;whiteSpace=wrap;rounded=0;" vertex="1" parent="1">
          <mxGeometry x="-670" y="1700" width="60" height="30" as="geometry" />
        </mxCell>
        <mxCell id="v022t3RNJI9IkPhm5vKd-110" value="Y" style="text;html=1;align=center;verticalAlign=middle;whiteSpace=wrap;rounded=0;" vertex="1" parent="1">
          <mxGeometry x="-670" y="1547.5" width="60" height="30" as="geometry" />
        </mxCell>
        <mxCell id="v022t3RNJI9IkPhm5vKd-111" value="Y" style="text;html=1;align=center;verticalAlign=middle;whiteSpace=wrap;rounded=0;" vertex="1" parent="1">
          <mxGeometry x="-670" y="1420" width="60" height="30" as="geometry" />
        </mxCell>
        <mxCell id="v022t3RNJI9IkPhm5vKd-112" value="Y" style="text;html=1;align=center;verticalAlign=middle;whiteSpace=wrap;rounded=0;" vertex="1" parent="1">
          <mxGeometry x="-670" y="1270" width="60" height="30" as="geometry" />
        </mxCell>
        <mxCell id="v022t3RNJI9IkPhm5vKd-113" value="Y" style="text;html=1;align=center;verticalAlign=middle;whiteSpace=wrap;rounded=0;" vertex="1" parent="1">
          <mxGeometry x="-670" y="1117.5" width="60" height="30" as="geometry" />
        </mxCell>
        <mxCell id="v022t3RNJI9IkPhm5vKd-114" value="Y" style="text;html=1;align=center;verticalAlign=middle;whiteSpace=wrap;rounded=0;" vertex="1" parent="1">
          <mxGeometry x="-670" y="987.5" width="60" height="30" as="geometry" />
        </mxCell>
        <mxCell id="v022t3RNJI9IkPhm5vKd-115" value="Y" style="text;html=1;align=center;verticalAlign=middle;whiteSpace=wrap;rounded=0;" vertex="1" parent="1">
          <mxGeometry x="-670" y="857.5" width="60" height="30" as="geometry" />
        </mxCell>
        <mxCell id="v022t3RNJI9IkPhm5vKd-116" value="Y" style="text;html=1;align=center;verticalAlign=middle;whiteSpace=wrap;rounded=0;" vertex="1" parent="1">
          <mxGeometry x="-670" y="737.5" width="60" height="30" as="geometry" />
        </mxCell>
        <mxCell id="v022t3RNJI9IkPhm5vKd-117" value="Y" style="text;html=1;align=center;verticalAlign=middle;whiteSpace=wrap;rounded=0;" vertex="1" parent="1">
          <mxGeometry x="-670" y="607.5" width="60" height="30" as="geometry" />
        </mxCell>
        <mxCell id="v022t3RNJI9IkPhm5vKd-118" value="Y" style="text;html=1;align=center;verticalAlign=middle;whiteSpace=wrap;rounded=0;" vertex="1" parent="1">
          <mxGeometry x="-670" y="220" width="60" height="30" as="geometry" />
        </mxCell>
        <mxCell id="v022t3RNJI9IkPhm5vKd-119" value="Y" style="text;html=1;align=center;verticalAlign=middle;whiteSpace=wrap;rounded=0;" vertex="1" parent="1">
          <mxGeometry x="-670" y="470" width="60" height="30" as="geometry" />
        </mxCell>
        <mxCell id="v022t3RNJI9IkPhm5vKd-120" value="Y" style="text;html=1;align=center;verticalAlign=middle;whiteSpace=wrap;rounded=0;" vertex="1" parent="1">
          <mxGeometry x="-670" y="347.5" width="60" height="30" as="geometry" />
        </mxCell>
        <mxCell id="v022t3RNJI9IkPhm5vKd-121" value="" style="edgeStyle=orthogonalEdgeStyle;rounded=0;orthogonalLoop=1;jettySize=auto;html=1;" edge="1" parent="1" source="v022t3RNJI9IkPhm5vKd-9" target="v022t3RNJI9IkPhm5vKd-122">
          <mxGeometry relative="1" as="geometry">
            <mxPoint x="-650" y="260" as="sourcePoint" />
            <mxPoint x="-330" y="260" as="targetPoint" />
          </mxGeometry>
        </mxCell>
        <mxCell id="v022t3RNJI9IkPhm5vKd-122" value="Zero" style="rounded=0;whiteSpace=wrap;html=1;" vertex="1" parent="1">
          <mxGeometry x="-570" y="230" width="120" height="60" as="geometry" />
        </mxCell>
        <mxCell id="v022t3RNJI9IkPhm5vKd-123" value="" style="edgeStyle=orthogonalEdgeStyle;rounded=0;orthogonalLoop=1;jettySize=auto;html=1;" edge="1" parent="1" source="v022t3RNJI9IkPhm5vKd-12" target="v022t3RNJI9IkPhm5vKd-124">
          <mxGeometry relative="1" as="geometry">
            <mxPoint x="-650" y="390" as="sourcePoint" />
            <mxPoint x="-330" y="390" as="targetPoint" />
          </mxGeometry>
        </mxCell>
        <mxCell id="v022t3RNJI9IkPhm5vKd-124" value="One" style="rounded=0;whiteSpace=wrap;html=1;" vertex="1" parent="1">
          <mxGeometry x="-570" y="360" width="120" height="60" as="geometry" />
        </mxCell>
        <mxCell id="v022t3RNJI9IkPhm5vKd-125" value="Y" style="text;html=1;align=center;verticalAlign=middle;whiteSpace=wrap;rounded=0;" vertex="1" parent="1">
          <mxGeometry x="-675" y="2097.5" width="60" height="30" as="geometry" />
        </mxCell>
        <mxCell id="v022t3RNJI9IkPhm5vKd-126" value="" style="edgeStyle=orthogonalEdgeStyle;rounded=0;orthogonalLoop=1;jettySize=auto;html=1;" edge="1" parent="1" source="v022t3RNJI9IkPhm5vKd-15" target="v022t3RNJI9IkPhm5vKd-127">
          <mxGeometry relative="1" as="geometry">
            <mxPoint x="-650" y="520" as="sourcePoint" />
            <mxPoint x="-330" y="520" as="targetPoint" />
          </mxGeometry>
        </mxCell>
        <mxCell id="v022t3RNJI9IkPhm5vKd-127" value="Two" style="rounded=0;whiteSpace=wrap;html=1;" vertex="1" parent="1">
          <mxGeometry x="-570" y="490" width="120" height="60" as="geometry" />
        </mxCell>
        <mxCell id="v022t3RNJI9IkPhm5vKd-128" value="" style="edgeStyle=orthogonalEdgeStyle;rounded=0;orthogonalLoop=1;jettySize=auto;html=1;" edge="1" parent="1" source="v022t3RNJI9IkPhm5vKd-19" target="v022t3RNJI9IkPhm5vKd-129">
          <mxGeometry relative="1" as="geometry">
            <mxPoint x="-650" y="650" as="sourcePoint" />
            <mxPoint x="-330" y="650" as="targetPoint" />
          </mxGeometry>
        </mxCell>
        <mxCell id="v022t3RNJI9IkPhm5vKd-129" value="Three" style="rounded=0;whiteSpace=wrap;html=1;" vertex="1" parent="1">
          <mxGeometry x="-570" y="620" width="120" height="60" as="geometry" />
        </mxCell>
        <mxCell id="v022t3RNJI9IkPhm5vKd-130" value="" style="edgeStyle=orthogonalEdgeStyle;rounded=0;orthogonalLoop=1;jettySize=auto;html=1;" edge="1" parent="1" source="v022t3RNJI9IkPhm5vKd-25" target="v022t3RNJI9IkPhm5vKd-131">
          <mxGeometry relative="1" as="geometry">
            <mxPoint x="-650" y="780" as="sourcePoint" />
            <mxPoint x="-329" y="780" as="targetPoint" />
          </mxGeometry>
        </mxCell>
        <mxCell id="v022t3RNJI9IkPhm5vKd-131" value="Four" style="rounded=0;whiteSpace=wrap;html=1;" vertex="1" parent="1">
          <mxGeometry x="-570" y="750" width="120" height="60" as="geometry" />
        </mxCell>
        <mxCell id="v022t3RNJI9IkPhm5vKd-132" value="" style="edgeStyle=orthogonalEdgeStyle;rounded=0;orthogonalLoop=1;jettySize=auto;html=1;" edge="1" parent="1" source="v022t3RNJI9IkPhm5vKd-22" target="v022t3RNJI9IkPhm5vKd-133">
          <mxGeometry relative="1" as="geometry">
            <mxPoint x="-650" y="900" as="sourcePoint" />
            <mxPoint x="-330" y="900" as="targetPoint" />
          </mxGeometry>
        </mxCell>
        <mxCell id="v022t3RNJI9IkPhm5vKd-133" value="Five" style="rounded=0;whiteSpace=wrap;html=1;" vertex="1" parent="1">
          <mxGeometry x="-570" y="870" width="120" height="60" as="geometry" />
        </mxCell>
        <mxCell id="v022t3RNJI9IkPhm5vKd-134" value="" style="edgeStyle=orthogonalEdgeStyle;rounded=0;orthogonalLoop=1;jettySize=auto;html=1;" edge="1" parent="1" source="v022t3RNJI9IkPhm5vKd-31" target="v022t3RNJI9IkPhm5vKd-135">
          <mxGeometry relative="1" as="geometry">
            <mxPoint x="-650" y="1030" as="sourcePoint" />
            <mxPoint x="-330" y="1030" as="targetPoint" />
          </mxGeometry>
        </mxCell>
        <mxCell id="v022t3RNJI9IkPhm5vKd-135" value="Six" style="rounded=0;whiteSpace=wrap;html=1;" vertex="1" parent="1">
          <mxGeometry x="-570" y="1000" width="120" height="60" as="geometry" />
        </mxCell>
        <mxCell id="v022t3RNJI9IkPhm5vKd-136" value="" style="edgeStyle=orthogonalEdgeStyle;rounded=0;orthogonalLoop=1;jettySize=auto;html=1;" edge="1" parent="1" source="v022t3RNJI9IkPhm5vKd-28" target="v022t3RNJI9IkPhm5vKd-137">
          <mxGeometry relative="1" as="geometry">
            <mxPoint x="-650" y="1160" as="sourcePoint" />
            <mxPoint x="-330" y="1160" as="targetPoint" />
          </mxGeometry>
        </mxCell>
        <mxCell id="v022t3RNJI9IkPhm5vKd-137" value="Seven" style="rounded=0;whiteSpace=wrap;html=1;" vertex="1" parent="1">
          <mxGeometry x="-570" y="1130" width="120" height="60" as="geometry" />
        </mxCell>
        <mxCell id="v022t3RNJI9IkPhm5vKd-138" value="" style="edgeStyle=orthogonalEdgeStyle;rounded=0;orthogonalLoop=1;jettySize=auto;html=1;" edge="1" parent="1" source="v022t3RNJI9IkPhm5vKd-34" target="v022t3RNJI9IkPhm5vKd-139">
          <mxGeometry relative="1" as="geometry">
            <mxPoint x="-650" y="1300" as="sourcePoint" />
            <mxPoint x="-330" y="1300" as="targetPoint" />
          </mxGeometry>
        </mxCell>
        <mxCell id="v022t3RNJI9IkPhm5vKd-139" value="Eight" style="rounded=0;whiteSpace=wrap;html=1;" vertex="1" parent="1">
          <mxGeometry x="-570" y="1270" width="120" height="60" as="geometry" />
        </mxCell>
        <mxCell id="v022t3RNJI9IkPhm5vKd-140" value="" style="edgeStyle=orthogonalEdgeStyle;rounded=0;orthogonalLoop=1;jettySize=auto;html=1;" edge="1" parent="1" source="v022t3RNJI9IkPhm5vKd-37" target="v022t3RNJI9IkPhm5vKd-141">
          <mxGeometry relative="1" as="geometry">
            <mxPoint x="-650" y="1450" as="sourcePoint" />
            <mxPoint x="-330" y="1450" as="targetPoint" />
          </mxGeometry>
        </mxCell>
        <mxCell id="v022t3RNJI9IkPhm5vKd-141" value="Nine" style="rounded=0;whiteSpace=wrap;html=1;" vertex="1" parent="1">
          <mxGeometry x="-570" y="1420" width="120" height="60" as="geometry" />
        </mxCell>
        <mxCell id="v022t3RNJI9IkPhm5vKd-142" value="" style="edgeStyle=orthogonalEdgeStyle;rounded=0;orthogonalLoop=1;jettySize=auto;html=1;" edge="1" parent="1" source="v022t3RNJI9IkPhm5vKd-40" target="v022t3RNJI9IkPhm5vKd-143">
          <mxGeometry relative="1" as="geometry">
            <mxPoint x="-650" y="1590" as="sourcePoint" />
            <mxPoint x="-330" y="1590" as="targetPoint" />
          </mxGeometry>
        </mxCell>
        <mxCell id="v022t3RNJI9IkPhm5vKd-143" value="Ten" style="rounded=0;whiteSpace=wrap;html=1;" vertex="1" parent="1">
          <mxGeometry x="-570" y="1560" width="120" height="60" as="geometry" />
        </mxCell>
        <mxCell id="v022t3RNJI9IkPhm5vKd-144" value="" style="edgeStyle=orthogonalEdgeStyle;rounded=0;orthogonalLoop=1;jettySize=auto;html=1;" edge="1" parent="1" source="v022t3RNJI9IkPhm5vKd-43" target="v022t3RNJI9IkPhm5vKd-145">
          <mxGeometry relative="1" as="geometry">
            <mxPoint x="-650" y="1730" as="sourcePoint" />
            <mxPoint x="-330" y="1730" as="targetPoint" />
          </mxGeometry>
        </mxCell>
        <mxCell id="v022t3RNJI9IkPhm5vKd-145" value="Eleven" style="rounded=0;whiteSpace=wrap;html=1;" vertex="1" parent="1">
          <mxGeometry x="-570" y="1700" width="120" height="60" as="geometry" />
        </mxCell>
        <mxCell id="v022t3RNJI9IkPhm5vKd-146" value="" style="edgeStyle=orthogonalEdgeStyle;rounded=0;orthogonalLoop=1;jettySize=auto;html=1;" edge="1" parent="1" source="v022t3RNJI9IkPhm5vKd-46" target="v022t3RNJI9IkPhm5vKd-147">
          <mxGeometry relative="1" as="geometry">
            <mxPoint x="-650" y="1870" as="sourcePoint" />
            <mxPoint x="-330" y="1870" as="targetPoint" />
          </mxGeometry>
        </mxCell>
        <mxCell id="v022t3RNJI9IkPhm5vKd-147" value="Twelve" style="rounded=0;whiteSpace=wrap;html=1;" vertex="1" parent="1">
          <mxGeometry x="-570" y="1840" width="120" height="60" as="geometry" />
        </mxCell>
        <mxCell id="v022t3RNJI9IkPhm5vKd-148" value="" style="edgeStyle=orthogonalEdgeStyle;rounded=0;orthogonalLoop=1;jettySize=auto;html=1;" edge="1" parent="1" source="v022t3RNJI9IkPhm5vKd-49" target="v022t3RNJI9IkPhm5vKd-149">
          <mxGeometry relative="1" as="geometry">
            <mxPoint x="-650" y="2010" as="sourcePoint" />
            <mxPoint x="-330" y="2010" as="targetPoint" />
          </mxGeometry>
        </mxCell>
        <mxCell id="v022t3RNJI9IkPhm5vKd-149" value="Thirteen" style="rounded=0;whiteSpace=wrap;html=1;" vertex="1" parent="1">
          <mxGeometry x="-570" y="1980" width="120" height="60" as="geometry" />
        </mxCell>
        <mxCell id="v022t3RNJI9IkPhm5vKd-150" value="" style="edgeStyle=orthogonalEdgeStyle;rounded=0;orthogonalLoop=1;jettySize=auto;html=1;" edge="1" parent="1" source="v022t3RNJI9IkPhm5vKd-52" target="v022t3RNJI9IkPhm5vKd-151">
          <mxGeometry relative="1" as="geometry">
            <mxPoint x="-650" y="2140" as="sourcePoint" />
            <mxPoint x="-330" y="2140" as="targetPoint" />
          </mxGeometry>
        </mxCell>
        <mxCell id="v022t3RNJI9IkPhm5vKd-151" value="Fourteen" style="rounded=0;whiteSpace=wrap;html=1;" vertex="1" parent="1">
          <mxGeometry x="-570" y="2110" width="120" height="60" as="geometry" />
        </mxCell>
        <mxCell id="v022t3RNJI9IkPhm5vKd-152" value="" style="edgeStyle=orthogonalEdgeStyle;rounded=0;orthogonalLoop=1;jettySize=auto;html=1;" edge="1" parent="1" source="v022t3RNJI9IkPhm5vKd-55" target="v022t3RNJI9IkPhm5vKd-153">
          <mxGeometry relative="1" as="geometry">
            <mxPoint x="-650" y="2270" as="sourcePoint" />
            <mxPoint x="-330" y="2270" as="targetPoint" />
          </mxGeometry>
        </mxCell>
        <mxCell id="v022t3RNJI9IkPhm5vKd-153" value="Fifteen" style="rounded=0;whiteSpace=wrap;html=1;" vertex="1" parent="1">
          <mxGeometry x="-570" y="2240" width="120" height="60" as="geometry" />
        </mxCell>
        <mxCell id="v022t3RNJI9IkPhm5vKd-155" value="" style="edgeStyle=orthogonalEdgeStyle;rounded=0;orthogonalLoop=1;jettySize=auto;html=1;" edge="1" parent="1" source="v022t3RNJI9IkPhm5vKd-157" target="v022t3RNJI9IkPhm5vKd-160">
          <mxGeometry relative="1" as="geometry" />
        </mxCell>
        <mxCell id="v022t3RNJI9IkPhm5vKd-156" value="" style="edgeStyle=orthogonalEdgeStyle;rounded=0;orthogonalLoop=1;jettySize=auto;html=1;" edge="1" parent="1" source="v022t3RNJI9IkPhm5vKd-261" target="v022t3RNJI9IkPhm5vKd-202">
          <mxGeometry relative="1" as="geometry" />
        </mxCell>
        <mxCell id="v022t3RNJI9IkPhm5vKd-157" value="ค่าที่ได้เป็นเลข 1" style="rhombus;whiteSpace=wrap;html=1;" vertex="1" parent="1">
          <mxGeometry x="-770" y="2390" width="120" height="100" as="geometry" />
        </mxCell>
        <mxCell id="v022t3RNJI9IkPhm5vKd-158" value="" style="edgeStyle=orthogonalEdgeStyle;rounded=0;orthogonalLoop=1;jettySize=auto;html=1;" edge="1" parent="1" source="v022t3RNJI9IkPhm5vKd-160" target="v022t3RNJI9IkPhm5vKd-164">
          <mxGeometry relative="1" as="geometry" />
        </mxCell>
        <mxCell id="v022t3RNJI9IkPhm5vKd-159" value="" style="edgeStyle=orthogonalEdgeStyle;rounded=0;orthogonalLoop=1;jettySize=auto;html=1;" edge="1" parent="1" source="v022t3RNJI9IkPhm5vKd-264" target="v022t3RNJI9IkPhm5vKd-204">
          <mxGeometry relative="1" as="geometry" />
        </mxCell>
        <mxCell id="v022t3RNJI9IkPhm5vKd-160" value="ค่าที่ได้เป็นเลข 2" style="rhombus;whiteSpace=wrap;html=1;" vertex="1" parent="1">
          <mxGeometry x="-770" y="2520" width="120" height="100" as="geometry" />
        </mxCell>
        <mxCell id="v022t3RNJI9IkPhm5vKd-161" value="" style="edgeStyle=orthogonalEdgeStyle;rounded=0;orthogonalLoop=1;jettySize=auto;html=1;" edge="1" parent="1" source="v022t3RNJI9IkPhm5vKd-164" target="v022t3RNJI9IkPhm5vKd-170">
          <mxGeometry relative="1" as="geometry" />
        </mxCell>
        <mxCell id="v022t3RNJI9IkPhm5vKd-162" value="" style="edgeStyle=orthogonalEdgeStyle;rounded=0;orthogonalLoop=1;jettySize=auto;html=1;" edge="1" parent="1" source="v022t3RNJI9IkPhm5vKd-164" target="v022t3RNJI9IkPhm5vKd-206">
          <mxGeometry relative="1" as="geometry" />
        </mxCell>
        <mxCell id="v022t3RNJI9IkPhm5vKd-163" value="" style="edgeStyle=orthogonalEdgeStyle;rounded=0;orthogonalLoop=1;jettySize=auto;html=1;" edge="1" parent="1" source="v022t3RNJI9IkPhm5vKd-266" target="v022t3RNJI9IkPhm5vKd-206">
          <mxGeometry relative="1" as="geometry" />
        </mxCell>
        <mxCell id="v022t3RNJI9IkPhm5vKd-164" value="ค่าที่ได้เป็นเลข 3" style="rhombus;whiteSpace=wrap;html=1;" vertex="1" parent="1">
          <mxGeometry x="-770" y="2650" width="120" height="100" as="geometry" />
        </mxCell>
        <mxCell id="v022t3RNJI9IkPhm5vKd-165" value="" style="edgeStyle=orthogonalEdgeStyle;rounded=0;orthogonalLoop=1;jettySize=auto;html=1;" edge="1" parent="1" source="v022t3RNJI9IkPhm5vKd-167" target="v022t3RNJI9IkPhm5vKd-176">
          <mxGeometry relative="1" as="geometry" />
        </mxCell>
        <mxCell id="v022t3RNJI9IkPhm5vKd-166" value="" style="edgeStyle=orthogonalEdgeStyle;rounded=0;orthogonalLoop=1;jettySize=auto;html=1;" edge="1" parent="1" source="v022t3RNJI9IkPhm5vKd-270" target="v022t3RNJI9IkPhm5vKd-210">
          <mxGeometry relative="1" as="geometry" />
        </mxCell>
        <mxCell id="v022t3RNJI9IkPhm5vKd-167" value="ค่าที่ได้เป็นเลข 5" style="rhombus;whiteSpace=wrap;html=1;" vertex="1" parent="1">
          <mxGeometry x="-770" y="2900" width="120" height="100" as="geometry" />
        </mxCell>
        <mxCell id="v022t3RNJI9IkPhm5vKd-168" value="" style="edgeStyle=orthogonalEdgeStyle;rounded=0;orthogonalLoop=1;jettySize=auto;html=1;" edge="1" parent="1" source="v022t3RNJI9IkPhm5vKd-170" target="v022t3RNJI9IkPhm5vKd-167">
          <mxGeometry relative="1" as="geometry" />
        </mxCell>
        <mxCell id="v022t3RNJI9IkPhm5vKd-169" value="" style="edgeStyle=orthogonalEdgeStyle;rounded=0;orthogonalLoop=1;jettySize=auto;html=1;" edge="1" parent="1" source="v022t3RNJI9IkPhm5vKd-268" target="v022t3RNJI9IkPhm5vKd-208">
          <mxGeometry relative="1" as="geometry" />
        </mxCell>
        <mxCell id="v022t3RNJI9IkPhm5vKd-170" value="ค่าที่ได้เป็นเลข 4" style="rhombus;whiteSpace=wrap;html=1;" vertex="1" parent="1">
          <mxGeometry x="-770" y="2780" width="120" height="100" as="geometry" />
        </mxCell>
        <mxCell id="v022t3RNJI9IkPhm5vKd-171" value="" style="edgeStyle=orthogonalEdgeStyle;rounded=0;orthogonalLoop=1;jettySize=auto;html=1;" edge="1" parent="1" source="v022t3RNJI9IkPhm5vKd-173" target="v022t3RNJI9IkPhm5vKd-179">
          <mxGeometry relative="1" as="geometry" />
        </mxCell>
        <mxCell id="v022t3RNJI9IkPhm5vKd-172" value="" style="edgeStyle=orthogonalEdgeStyle;rounded=0;orthogonalLoop=1;jettySize=auto;html=1;" edge="1" parent="1" source="v022t3RNJI9IkPhm5vKd-274" target="v022t3RNJI9IkPhm5vKd-214">
          <mxGeometry relative="1" as="geometry" />
        </mxCell>
        <mxCell id="v022t3RNJI9IkPhm5vKd-173" value="ค่าที่ได้เป็นเลข 7" style="rhombus;whiteSpace=wrap;html=1;" vertex="1" parent="1">
          <mxGeometry x="-770" y="3160" width="120" height="100" as="geometry" />
        </mxCell>
        <mxCell id="v022t3RNJI9IkPhm5vKd-174" value="" style="edgeStyle=orthogonalEdgeStyle;rounded=0;orthogonalLoop=1;jettySize=auto;html=1;" edge="1" parent="1" source="v022t3RNJI9IkPhm5vKd-176" target="v022t3RNJI9IkPhm5vKd-173">
          <mxGeometry relative="1" as="geometry" />
        </mxCell>
        <mxCell id="v022t3RNJI9IkPhm5vKd-175" value="" style="edgeStyle=orthogonalEdgeStyle;rounded=0;orthogonalLoop=1;jettySize=auto;html=1;" edge="1" parent="1" source="v022t3RNJI9IkPhm5vKd-272" target="v022t3RNJI9IkPhm5vKd-212">
          <mxGeometry relative="1" as="geometry" />
        </mxCell>
        <mxCell id="v022t3RNJI9IkPhm5vKd-176" value="ค่าที่ได้เป็นเลข 6" style="rhombus;whiteSpace=wrap;html=1;" vertex="1" parent="1">
          <mxGeometry x="-770" y="3030" width="120" height="100" as="geometry" />
        </mxCell>
        <mxCell id="v022t3RNJI9IkPhm5vKd-177" value="" style="edgeStyle=orthogonalEdgeStyle;rounded=0;orthogonalLoop=1;jettySize=auto;html=1;" edge="1" parent="1" source="v022t3RNJI9IkPhm5vKd-179" target="v022t3RNJI9IkPhm5vKd-182">
          <mxGeometry relative="1" as="geometry" />
        </mxCell>
        <mxCell id="v022t3RNJI9IkPhm5vKd-178" value="" style="edgeStyle=orthogonalEdgeStyle;rounded=0;orthogonalLoop=1;jettySize=auto;html=1;" edge="1" parent="1" source="v022t3RNJI9IkPhm5vKd-276" target="v022t3RNJI9IkPhm5vKd-216">
          <mxGeometry relative="1" as="geometry" />
        </mxCell>
        <mxCell id="v022t3RNJI9IkPhm5vKd-179" value="ค่าที่ได้เป็นเลข 8" style="rhombus;whiteSpace=wrap;html=1;" vertex="1" parent="1">
          <mxGeometry x="-770" y="3300" width="120" height="100" as="geometry" />
        </mxCell>
        <mxCell id="v022t3RNJI9IkPhm5vKd-180" value="" style="edgeStyle=orthogonalEdgeStyle;rounded=0;orthogonalLoop=1;jettySize=auto;html=1;" edge="1" parent="1" source="v022t3RNJI9IkPhm5vKd-182" target="v022t3RNJI9IkPhm5vKd-185">
          <mxGeometry relative="1" as="geometry" />
        </mxCell>
        <mxCell id="v022t3RNJI9IkPhm5vKd-181" value="" style="edgeStyle=orthogonalEdgeStyle;rounded=0;orthogonalLoop=1;jettySize=auto;html=1;" edge="1" parent="1" source="v022t3RNJI9IkPhm5vKd-278" target="v022t3RNJI9IkPhm5vKd-218">
          <mxGeometry relative="1" as="geometry" />
        </mxCell>
        <mxCell id="v022t3RNJI9IkPhm5vKd-182" value="ค่าที่ได้เป็นเลข 9" style="rhombus;whiteSpace=wrap;html=1;" vertex="1" parent="1">
          <mxGeometry x="-770" y="3450" width="120" height="100" as="geometry" />
        </mxCell>
        <mxCell id="v022t3RNJI9IkPhm5vKd-183" value="" style="edgeStyle=orthogonalEdgeStyle;rounded=0;orthogonalLoop=1;jettySize=auto;html=1;" edge="1" parent="1" source="v022t3RNJI9IkPhm5vKd-185" target="v022t3RNJI9IkPhm5vKd-188">
          <mxGeometry relative="1" as="geometry" />
        </mxCell>
        <mxCell id="v022t3RNJI9IkPhm5vKd-184" value="" style="edgeStyle=orthogonalEdgeStyle;rounded=0;orthogonalLoop=1;jettySize=auto;html=1;" edge="1" parent="1" source="v022t3RNJI9IkPhm5vKd-280" target="v022t3RNJI9IkPhm5vKd-220">
          <mxGeometry relative="1" as="geometry" />
        </mxCell>
        <mxCell id="v022t3RNJI9IkPhm5vKd-185" value="ค่าที่ได้เป็นเลข A/a" style="rhombus;whiteSpace=wrap;html=1;" vertex="1" parent="1">
          <mxGeometry x="-770" y="3590" width="120" height="100" as="geometry" />
        </mxCell>
        <mxCell id="v022t3RNJI9IkPhm5vKd-186" value="" style="edgeStyle=orthogonalEdgeStyle;rounded=0;orthogonalLoop=1;jettySize=auto;html=1;" edge="1" parent="1" source="v022t3RNJI9IkPhm5vKd-188" target="v022t3RNJI9IkPhm5vKd-191">
          <mxGeometry relative="1" as="geometry" />
        </mxCell>
        <mxCell id="v022t3RNJI9IkPhm5vKd-187" value="" style="edgeStyle=orthogonalEdgeStyle;rounded=0;orthogonalLoop=1;jettySize=auto;html=1;" edge="1" parent="1" source="v022t3RNJI9IkPhm5vKd-282" target="v022t3RNJI9IkPhm5vKd-222">
          <mxGeometry relative="1" as="geometry" />
        </mxCell>
        <mxCell id="v022t3RNJI9IkPhm5vKd-188" value="ค่าที่ได้เป็นเลข B/b" style="rhombus;whiteSpace=wrap;html=1;" vertex="1" parent="1">
          <mxGeometry x="-770" y="3730" width="120" height="100" as="geometry" />
        </mxCell>
        <mxCell id="v022t3RNJI9IkPhm5vKd-189" value="" style="edgeStyle=orthogonalEdgeStyle;rounded=0;orthogonalLoop=1;jettySize=auto;html=1;" edge="1" parent="1" source="v022t3RNJI9IkPhm5vKd-191" target="v022t3RNJI9IkPhm5vKd-194">
          <mxGeometry relative="1" as="geometry" />
        </mxCell>
        <mxCell id="v022t3RNJI9IkPhm5vKd-190" value="" style="edgeStyle=orthogonalEdgeStyle;rounded=0;orthogonalLoop=1;jettySize=auto;html=1;" edge="1" parent="1" source="v022t3RNJI9IkPhm5vKd-284" target="v022t3RNJI9IkPhm5vKd-224">
          <mxGeometry relative="1" as="geometry" />
        </mxCell>
        <mxCell id="v022t3RNJI9IkPhm5vKd-191" value="ค่าที่ได้เป็นเลข C/c" style="rhombus;whiteSpace=wrap;html=1;" vertex="1" parent="1">
          <mxGeometry x="-770" y="3870" width="120" height="100" as="geometry" />
        </mxCell>
        <mxCell id="v022t3RNJI9IkPhm5vKd-192" value="" style="edgeStyle=orthogonalEdgeStyle;rounded=0;orthogonalLoop=1;jettySize=auto;html=1;" edge="1" parent="1" source="v022t3RNJI9IkPhm5vKd-194" target="v022t3RNJI9IkPhm5vKd-197">
          <mxGeometry relative="1" as="geometry" />
        </mxCell>
        <mxCell id="v022t3RNJI9IkPhm5vKd-193" value="" style="edgeStyle=orthogonalEdgeStyle;rounded=0;orthogonalLoop=1;jettySize=auto;html=1;" edge="1" parent="1" source="v022t3RNJI9IkPhm5vKd-286" target="v022t3RNJI9IkPhm5vKd-226">
          <mxGeometry relative="1" as="geometry" />
        </mxCell>
        <mxCell id="v022t3RNJI9IkPhm5vKd-194" value="ค่าที่ได้เป็นเลขD/d" style="rhombus;whiteSpace=wrap;html=1;" vertex="1" parent="1">
          <mxGeometry x="-770" y="4010" width="120" height="100" as="geometry" />
        </mxCell>
        <mxCell id="v022t3RNJI9IkPhm5vKd-195" value="" style="edgeStyle=orthogonalEdgeStyle;rounded=0;orthogonalLoop=1;jettySize=auto;html=1;" edge="1" parent="1" source="v022t3RNJI9IkPhm5vKd-197" target="v022t3RNJI9IkPhm5vKd-200">
          <mxGeometry relative="1" as="geometry" />
        </mxCell>
        <mxCell id="v022t3RNJI9IkPhm5vKd-196" value="" style="edgeStyle=orthogonalEdgeStyle;rounded=0;orthogonalLoop=1;jettySize=auto;html=1;" edge="1" parent="1" source="v022t3RNJI9IkPhm5vKd-288" target="v022t3RNJI9IkPhm5vKd-228">
          <mxGeometry relative="1" as="geometry" />
        </mxCell>
        <mxCell id="v022t3RNJI9IkPhm5vKd-197" value="ค่าที่ได้เป็นเลขE/e" style="rhombus;whiteSpace=wrap;html=1;" vertex="1" parent="1">
          <mxGeometry x="-770" y="4140" width="120" height="100" as="geometry" />
        </mxCell>
        <mxCell id="v022t3RNJI9IkPhm5vKd-198" value="" style="edgeStyle=orthogonalEdgeStyle;rounded=0;orthogonalLoop=1;jettySize=auto;html=1;" edge="1" parent="1" source="v022t3RNJI9IkPhm5vKd-200">
          <mxGeometry relative="1" as="geometry">
            <mxPoint x="-710" y="4410" as="targetPoint" />
          </mxGeometry>
        </mxCell>
        <mxCell id="v022t3RNJI9IkPhm5vKd-199" value="" style="edgeStyle=orthogonalEdgeStyle;rounded=0;orthogonalLoop=1;jettySize=auto;html=1;" edge="1" parent="1" source="v022t3RNJI9IkPhm5vKd-290" target="v022t3RNJI9IkPhm5vKd-229">
          <mxGeometry relative="1" as="geometry" />
        </mxCell>
        <mxCell id="v022t3RNJI9IkPhm5vKd-200" value="ค่าที่ได้เป็นเลขF/f" style="rhombus;whiteSpace=wrap;html=1;" vertex="1" parent="1">
          <mxGeometry x="-770" y="4270" width="120" height="100" as="geometry" />
        </mxCell>
        <mxCell id="v022t3RNJI9IkPhm5vKd-201" value="" style="edgeStyle=orthogonalEdgeStyle;rounded=0;orthogonalLoop=1;jettySize=auto;html=1;" edge="1" parent="1" source="v022t3RNJI9IkPhm5vKd-202" target="v022t3RNJI9IkPhm5vKd-204">
          <mxGeometry relative="1" as="geometry" />
        </mxCell>
        <mxCell id="v022t3RNJI9IkPhm5vKd-202" value="" style="ellipse;whiteSpace=wrap;html=1;aspect=fixed;" vertex="1" parent="1">
          <mxGeometry x="-330" y="2427.5" width="25" height="25" as="geometry" />
        </mxCell>
        <mxCell id="v022t3RNJI9IkPhm5vKd-203" value="" style="edgeStyle=orthogonalEdgeStyle;rounded=0;orthogonalLoop=1;jettySize=auto;html=1;" edge="1" parent="1" source="v022t3RNJI9IkPhm5vKd-204" target="v022t3RNJI9IkPhm5vKd-206">
          <mxGeometry relative="1" as="geometry" />
        </mxCell>
        <mxCell id="v022t3RNJI9IkPhm5vKd-204" value="" style="ellipse;whiteSpace=wrap;html=1;aspect=fixed;" vertex="1" parent="1">
          <mxGeometry x="-330" y="2557.5" width="25" height="25" as="geometry" />
        </mxCell>
        <mxCell id="v022t3RNJI9IkPhm5vKd-205" value="" style="edgeStyle=orthogonalEdgeStyle;rounded=0;orthogonalLoop=1;jettySize=auto;html=1;" edge="1" parent="1" source="v022t3RNJI9IkPhm5vKd-206" target="v022t3RNJI9IkPhm5vKd-208">
          <mxGeometry relative="1" as="geometry" />
        </mxCell>
        <mxCell id="v022t3RNJI9IkPhm5vKd-206" value="" style="ellipse;whiteSpace=wrap;html=1;aspect=fixed;" vertex="1" parent="1">
          <mxGeometry x="-330" y="2687.5" width="25" height="25" as="geometry" />
        </mxCell>
        <mxCell id="v022t3RNJI9IkPhm5vKd-207" value="" style="edgeStyle=orthogonalEdgeStyle;rounded=0;orthogonalLoop=1;jettySize=auto;html=1;" edge="1" parent="1" source="v022t3RNJI9IkPhm5vKd-208" target="v022t3RNJI9IkPhm5vKd-210">
          <mxGeometry relative="1" as="geometry" />
        </mxCell>
        <mxCell id="v022t3RNJI9IkPhm5vKd-208" value="" style="ellipse;whiteSpace=wrap;html=1;aspect=fixed;" vertex="1" parent="1">
          <mxGeometry x="-328.75" y="2818.75" width="22.5" height="22.5" as="geometry" />
        </mxCell>
        <mxCell id="v022t3RNJI9IkPhm5vKd-209" value="" style="edgeStyle=orthogonalEdgeStyle;rounded=0;orthogonalLoop=1;jettySize=auto;html=1;" edge="1" parent="1" source="v022t3RNJI9IkPhm5vKd-210" target="v022t3RNJI9IkPhm5vKd-212">
          <mxGeometry relative="1" as="geometry" />
        </mxCell>
        <mxCell id="v022t3RNJI9IkPhm5vKd-210" value="" style="ellipse;whiteSpace=wrap;html=1;aspect=fixed;" vertex="1" parent="1">
          <mxGeometry x="-330" y="2937.5" width="25" height="25" as="geometry" />
        </mxCell>
        <mxCell id="v022t3RNJI9IkPhm5vKd-211" value="" style="edgeStyle=orthogonalEdgeStyle;rounded=0;orthogonalLoop=1;jettySize=auto;html=1;" edge="1" parent="1" source="v022t3RNJI9IkPhm5vKd-212" target="v022t3RNJI9IkPhm5vKd-214">
          <mxGeometry relative="1" as="geometry" />
        </mxCell>
        <mxCell id="v022t3RNJI9IkPhm5vKd-212" value="" style="ellipse;whiteSpace=wrap;html=1;aspect=fixed;" vertex="1" parent="1">
          <mxGeometry x="-330" y="3067.5" width="25" height="25" as="geometry" />
        </mxCell>
        <mxCell id="v022t3RNJI9IkPhm5vKd-213" value="" style="edgeStyle=orthogonalEdgeStyle;rounded=0;orthogonalLoop=1;jettySize=auto;html=1;" edge="1" parent="1" source="v022t3RNJI9IkPhm5vKd-214" target="v022t3RNJI9IkPhm5vKd-216">
          <mxGeometry relative="1" as="geometry" />
        </mxCell>
        <mxCell id="v022t3RNJI9IkPhm5vKd-214" value="" style="ellipse;whiteSpace=wrap;html=1;aspect=fixed;" vertex="1" parent="1">
          <mxGeometry x="-330" y="3197.5" width="25" height="25" as="geometry" />
        </mxCell>
        <mxCell id="v022t3RNJI9IkPhm5vKd-215" style="edgeStyle=orthogonalEdgeStyle;rounded=0;orthogonalLoop=1;jettySize=auto;html=1;entryX=0.5;entryY=0;entryDx=0;entryDy=0;" edge="1" parent="1" source="v022t3RNJI9IkPhm5vKd-216" target="v022t3RNJI9IkPhm5vKd-218">
          <mxGeometry relative="1" as="geometry" />
        </mxCell>
        <mxCell id="v022t3RNJI9IkPhm5vKd-216" value="" style="ellipse;whiteSpace=wrap;html=1;aspect=fixed;" vertex="1" parent="1">
          <mxGeometry x="-330" y="3337.5" width="25" height="25" as="geometry" />
        </mxCell>
        <mxCell id="v022t3RNJI9IkPhm5vKd-217" value="" style="edgeStyle=orthogonalEdgeStyle;rounded=0;orthogonalLoop=1;jettySize=auto;html=1;" edge="1" parent="1" source="v022t3RNJI9IkPhm5vKd-218" target="v022t3RNJI9IkPhm5vKd-220">
          <mxGeometry relative="1" as="geometry" />
        </mxCell>
        <mxCell id="v022t3RNJI9IkPhm5vKd-218" value="" style="ellipse;whiteSpace=wrap;html=1;aspect=fixed;" vertex="1" parent="1">
          <mxGeometry x="-330" y="3487.5" width="25" height="25" as="geometry" />
        </mxCell>
        <mxCell id="v022t3RNJI9IkPhm5vKd-219" value="" style="edgeStyle=orthogonalEdgeStyle;rounded=0;orthogonalLoop=1;jettySize=auto;html=1;" edge="1" parent="1" source="v022t3RNJI9IkPhm5vKd-220" target="v022t3RNJI9IkPhm5vKd-222">
          <mxGeometry relative="1" as="geometry" />
        </mxCell>
        <mxCell id="v022t3RNJI9IkPhm5vKd-220" value="" style="ellipse;whiteSpace=wrap;html=1;aspect=fixed;" vertex="1" parent="1">
          <mxGeometry x="-330" y="3627.5" width="25" height="25" as="geometry" />
        </mxCell>
        <mxCell id="v022t3RNJI9IkPhm5vKd-221" value="" style="edgeStyle=orthogonalEdgeStyle;rounded=0;orthogonalLoop=1;jettySize=auto;html=1;" edge="1" parent="1" source="v022t3RNJI9IkPhm5vKd-222" target="v022t3RNJI9IkPhm5vKd-224">
          <mxGeometry relative="1" as="geometry" />
        </mxCell>
        <mxCell id="v022t3RNJI9IkPhm5vKd-222" value="" style="ellipse;whiteSpace=wrap;html=1;aspect=fixed;" vertex="1" parent="1">
          <mxGeometry x="-330" y="3767.5" width="25" height="25" as="geometry" />
        </mxCell>
        <mxCell id="v022t3RNJI9IkPhm5vKd-223" value="" style="edgeStyle=orthogonalEdgeStyle;rounded=0;orthogonalLoop=1;jettySize=auto;html=1;" edge="1" parent="1" source="v022t3RNJI9IkPhm5vKd-224" target="v022t3RNJI9IkPhm5vKd-226">
          <mxGeometry relative="1" as="geometry" />
        </mxCell>
        <mxCell id="v022t3RNJI9IkPhm5vKd-224" value="" style="ellipse;whiteSpace=wrap;html=1;aspect=fixed;" vertex="1" parent="1">
          <mxGeometry x="-330" y="3907.5" width="25" height="25" as="geometry" />
        </mxCell>
        <mxCell id="v022t3RNJI9IkPhm5vKd-225" value="" style="edgeStyle=orthogonalEdgeStyle;rounded=0;orthogonalLoop=1;jettySize=auto;html=1;" edge="1" parent="1" source="v022t3RNJI9IkPhm5vKd-226" target="v022t3RNJI9IkPhm5vKd-228">
          <mxGeometry relative="1" as="geometry" />
        </mxCell>
        <mxCell id="v022t3RNJI9IkPhm5vKd-226" value="" style="ellipse;whiteSpace=wrap;html=1;aspect=fixed;" vertex="1" parent="1">
          <mxGeometry x="-330" y="4047.5" width="25" height="25" as="geometry" />
        </mxCell>
        <mxCell id="v022t3RNJI9IkPhm5vKd-227" value="" style="edgeStyle=orthogonalEdgeStyle;rounded=0;orthogonalLoop=1;jettySize=auto;html=1;" edge="1" parent="1" source="v022t3RNJI9IkPhm5vKd-228" target="v022t3RNJI9IkPhm5vKd-229">
          <mxGeometry relative="1" as="geometry" />
        </mxCell>
        <mxCell id="v022t3RNJI9IkPhm5vKd-228" value="" style="ellipse;whiteSpace=wrap;html=1;aspect=fixed;" vertex="1" parent="1">
          <mxGeometry x="-330" y="4177.5" width="25" height="25" as="geometry" />
        </mxCell>
        <mxCell id="v022t3RNJI9IkPhm5vKd-293" style="edgeStyle=orthogonalEdgeStyle;rounded=0;orthogonalLoop=1;jettySize=auto;html=1;entryX=1;entryY=0.5;entryDx=0;entryDy=0;" edge="1" parent="1" source="v022t3RNJI9IkPhm5vKd-229" target="v022t3RNJI9IkPhm5vKd-292">
          <mxGeometry relative="1" as="geometry">
            <Array as="points">
              <mxPoint x="-318" y="4423" />
              <mxPoint x="-514" y="4423" />
            </Array>
          </mxGeometry>
        </mxCell>
        <mxCell id="v022t3RNJI9IkPhm5vKd-229" value="" style="ellipse;whiteSpace=wrap;html=1;aspect=fixed;" vertex="1" parent="1">
          <mxGeometry x="-330" y="4307.5" width="25" height="25" as="geometry" />
        </mxCell>
        <mxCell id="v022t3RNJI9IkPhm5vKd-231" value="N" style="text;html=1;align=center;verticalAlign=middle;whiteSpace=wrap;rounded=0;" vertex="1" parent="1">
          <mxGeometry x="-720" y="2480" width="60" height="30" as="geometry" />
        </mxCell>
        <mxCell id="v022t3RNJI9IkPhm5vKd-232" value="N" style="text;html=1;align=center;verticalAlign=middle;whiteSpace=wrap;rounded=0;" vertex="1" parent="1">
          <mxGeometry x="-720" y="2620" width="60" height="30" as="geometry" />
        </mxCell>
        <mxCell id="v022t3RNJI9IkPhm5vKd-233" value="N" style="text;html=1;align=center;verticalAlign=middle;whiteSpace=wrap;rounded=0;" vertex="1" parent="1">
          <mxGeometry x="-720" y="2740" width="60" height="30" as="geometry" />
        </mxCell>
        <mxCell id="v022t3RNJI9IkPhm5vKd-234" value="N" style="text;html=1;align=center;verticalAlign=middle;whiteSpace=wrap;rounded=0;" vertex="1" parent="1">
          <mxGeometry x="-720" y="2870" width="60" height="30" as="geometry" />
        </mxCell>
        <mxCell id="v022t3RNJI9IkPhm5vKd-235" value="N" style="text;html=1;align=center;verticalAlign=middle;whiteSpace=wrap;rounded=0;" vertex="1" parent="1">
          <mxGeometry x="-720" y="2990" width="60" height="30" as="geometry" />
        </mxCell>
        <mxCell id="v022t3RNJI9IkPhm5vKd-236" value="N" style="text;html=1;align=center;verticalAlign=middle;whiteSpace=wrap;rounded=0;" vertex="1" parent="1">
          <mxGeometry x="-720" y="3120" width="60" height="30" as="geometry" />
        </mxCell>
        <mxCell id="v022t3RNJI9IkPhm5vKd-237" value="N" style="text;html=1;align=center;verticalAlign=middle;whiteSpace=wrap;rounded=0;" vertex="1" parent="1">
          <mxGeometry x="-720" y="3260" width="60" height="30" as="geometry" />
        </mxCell>
        <mxCell id="v022t3RNJI9IkPhm5vKd-238" value="N" style="text;html=1;align=center;verticalAlign=middle;whiteSpace=wrap;rounded=0;" vertex="1" parent="1">
          <mxGeometry x="-720" y="3400" width="60" height="30" as="geometry" />
        </mxCell>
        <mxCell id="v022t3RNJI9IkPhm5vKd-239" value="N" style="text;html=1;align=center;verticalAlign=middle;whiteSpace=wrap;rounded=0;" vertex="1" parent="1">
          <mxGeometry x="-720" y="3540" width="60" height="30" as="geometry" />
        </mxCell>
        <mxCell id="v022t3RNJI9IkPhm5vKd-240" value="N" style="text;html=1;align=center;verticalAlign=middle;whiteSpace=wrap;rounded=0;" vertex="1" parent="1">
          <mxGeometry x="-720" y="3680" width="60" height="30" as="geometry" />
        </mxCell>
        <mxCell id="v022t3RNJI9IkPhm5vKd-241" value="N" style="text;html=1;align=center;verticalAlign=middle;whiteSpace=wrap;rounded=0;" vertex="1" parent="1">
          <mxGeometry x="-720" y="3820" width="60" height="30" as="geometry" />
        </mxCell>
        <mxCell id="v022t3RNJI9IkPhm5vKd-242" value="N" style="text;html=1;align=center;verticalAlign=middle;whiteSpace=wrap;rounded=0;" vertex="1" parent="1">
          <mxGeometry x="-720" y="3960" width="60" height="30" as="geometry" />
        </mxCell>
        <mxCell id="v022t3RNJI9IkPhm5vKd-243" value="N" style="text;html=1;align=center;verticalAlign=middle;whiteSpace=wrap;rounded=0;" vertex="1" parent="1">
          <mxGeometry x="-720" y="4100" width="60" height="30" as="geometry" />
        </mxCell>
        <mxCell id="v022t3RNJI9IkPhm5vKd-244" value="N" style="text;html=1;align=center;verticalAlign=middle;whiteSpace=wrap;rounded=0;" vertex="1" parent="1">
          <mxGeometry x="-720" y="4230" width="60" height="30" as="geometry" />
        </mxCell>
        <mxCell id="v022t3RNJI9IkPhm5vKd-245" value="N" style="text;html=1;align=center;verticalAlign=middle;whiteSpace=wrap;rounded=0;" vertex="1" parent="1">
          <mxGeometry x="-720" y="4358" width="60" height="30" as="geometry" />
        </mxCell>
        <mxCell id="v022t3RNJI9IkPhm5vKd-246" value="Y" style="text;html=1;align=center;verticalAlign=middle;whiteSpace=wrap;rounded=0;" vertex="1" parent="1">
          <mxGeometry x="-670" y="4277.5" width="60" height="30" as="geometry" />
        </mxCell>
        <mxCell id="v022t3RNJI9IkPhm5vKd-247" value="Y" style="text;html=1;align=center;verticalAlign=middle;whiteSpace=wrap;rounded=0;" vertex="1" parent="1">
          <mxGeometry x="-670" y="4030" width="60" height="30" as="geometry" />
        </mxCell>
        <mxCell id="v022t3RNJI9IkPhm5vKd-248" value="Y" style="text;html=1;align=center;verticalAlign=middle;whiteSpace=wrap;rounded=0;" vertex="1" parent="1">
          <mxGeometry x="-670" y="3877.5" width="60" height="30" as="geometry" />
        </mxCell>
        <mxCell id="v022t3RNJI9IkPhm5vKd-249" value="Y" style="text;html=1;align=center;verticalAlign=middle;whiteSpace=wrap;rounded=0;" vertex="1" parent="1">
          <mxGeometry x="-670" y="3750" width="60" height="30" as="geometry" />
        </mxCell>
        <mxCell id="v022t3RNJI9IkPhm5vKd-250" value="Y" style="text;html=1;align=center;verticalAlign=middle;whiteSpace=wrap;rounded=0;" vertex="1" parent="1">
          <mxGeometry x="-670" y="3597.5" width="60" height="30" as="geometry" />
        </mxCell>
        <mxCell id="v022t3RNJI9IkPhm5vKd-251" value="Y" style="text;html=1;align=center;verticalAlign=middle;whiteSpace=wrap;rounded=0;" vertex="1" parent="1">
          <mxGeometry x="-670" y="3470" width="60" height="30" as="geometry" />
        </mxCell>
        <mxCell id="v022t3RNJI9IkPhm5vKd-252" value="Y" style="text;html=1;align=center;verticalAlign=middle;whiteSpace=wrap;rounded=0;" vertex="1" parent="1">
          <mxGeometry x="-670" y="3320" width="60" height="30" as="geometry" />
        </mxCell>
        <mxCell id="v022t3RNJI9IkPhm5vKd-253" value="Y" style="text;html=1;align=center;verticalAlign=middle;whiteSpace=wrap;rounded=0;" vertex="1" parent="1">
          <mxGeometry x="-670" y="3167.5" width="60" height="30" as="geometry" />
        </mxCell>
        <mxCell id="v022t3RNJI9IkPhm5vKd-254" value="Y" style="text;html=1;align=center;verticalAlign=middle;whiteSpace=wrap;rounded=0;" vertex="1" parent="1">
          <mxGeometry x="-670" y="3037.5" width="60" height="30" as="geometry" />
        </mxCell>
        <mxCell id="v022t3RNJI9IkPhm5vKd-255" value="Y" style="text;html=1;align=center;verticalAlign=middle;whiteSpace=wrap;rounded=0;" vertex="1" parent="1">
          <mxGeometry x="-670" y="2907.5" width="60" height="30" as="geometry" />
        </mxCell>
        <mxCell id="v022t3RNJI9IkPhm5vKd-256" value="Y" style="text;html=1;align=center;verticalAlign=middle;whiteSpace=wrap;rounded=0;" vertex="1" parent="1">
          <mxGeometry x="-670" y="2787.5" width="60" height="30" as="geometry" />
        </mxCell>
        <mxCell id="v022t3RNJI9IkPhm5vKd-257" value="Y" style="text;html=1;align=center;verticalAlign=middle;whiteSpace=wrap;rounded=0;" vertex="1" parent="1">
          <mxGeometry x="-670" y="2657.5" width="60" height="30" as="geometry" />
        </mxCell>
        <mxCell id="v022t3RNJI9IkPhm5vKd-258" value="Y" style="text;html=1;align=center;verticalAlign=middle;whiteSpace=wrap;rounded=0;" vertex="1" parent="1">
          <mxGeometry x="-670" y="2520" width="60" height="30" as="geometry" />
        </mxCell>
        <mxCell id="v022t3RNJI9IkPhm5vKd-259" value="Y" style="text;html=1;align=center;verticalAlign=middle;whiteSpace=wrap;rounded=0;" vertex="1" parent="1">
          <mxGeometry x="-670" y="2397.5" width="60" height="30" as="geometry" />
        </mxCell>
        <mxCell id="v022t3RNJI9IkPhm5vKd-260" value="" style="edgeStyle=orthogonalEdgeStyle;rounded=0;orthogonalLoop=1;jettySize=auto;html=1;" edge="1" parent="1" source="v022t3RNJI9IkPhm5vKd-157" target="v022t3RNJI9IkPhm5vKd-261">
          <mxGeometry relative="1" as="geometry">
            <mxPoint x="-650" y="2440" as="sourcePoint" />
            <mxPoint x="-330" y="2440" as="targetPoint" />
          </mxGeometry>
        </mxCell>
        <mxCell id="v022t3RNJI9IkPhm5vKd-261" value="Sixteen" style="rounded=0;whiteSpace=wrap;html=1;" vertex="1" parent="1">
          <mxGeometry x="-570" y="2410" width="120" height="60" as="geometry" />
        </mxCell>
        <mxCell id="v022t3RNJI9IkPhm5vKd-262" value="Y" style="text;html=1;align=center;verticalAlign=middle;whiteSpace=wrap;rounded=0;" vertex="1" parent="1">
          <mxGeometry x="-675" y="4147.5" width="60" height="30" as="geometry" />
        </mxCell>
        <mxCell id="v022t3RNJI9IkPhm5vKd-263" value="" style="edgeStyle=orthogonalEdgeStyle;rounded=0;orthogonalLoop=1;jettySize=auto;html=1;" edge="1" parent="1" source="v022t3RNJI9IkPhm5vKd-160" target="v022t3RNJI9IkPhm5vKd-264">
          <mxGeometry relative="1" as="geometry">
            <mxPoint x="-650" y="2570" as="sourcePoint" />
            <mxPoint x="-330" y="2570" as="targetPoint" />
          </mxGeometry>
        </mxCell>
        <mxCell id="v022t3RNJI9IkPhm5vKd-264" value="Seventeen" style="rounded=0;whiteSpace=wrap;html=1;" vertex="1" parent="1">
          <mxGeometry x="-570" y="2540" width="120" height="60" as="geometry" />
        </mxCell>
        <mxCell id="v022t3RNJI9IkPhm5vKd-265" value="" style="edgeStyle=orthogonalEdgeStyle;rounded=0;orthogonalLoop=1;jettySize=auto;html=1;" edge="1" parent="1" source="v022t3RNJI9IkPhm5vKd-164" target="v022t3RNJI9IkPhm5vKd-266">
          <mxGeometry relative="1" as="geometry">
            <mxPoint x="-650" y="2700" as="sourcePoint" />
            <mxPoint x="-330" y="2700" as="targetPoint" />
          </mxGeometry>
        </mxCell>
        <mxCell id="v022t3RNJI9IkPhm5vKd-266" value="Eighteen" style="rounded=0;whiteSpace=wrap;html=1;" vertex="1" parent="1">
          <mxGeometry x="-570" y="2670" width="120" height="60" as="geometry" />
        </mxCell>
        <mxCell id="v022t3RNJI9IkPhm5vKd-267" value="" style="edgeStyle=orthogonalEdgeStyle;rounded=0;orthogonalLoop=1;jettySize=auto;html=1;" edge="1" parent="1" source="v022t3RNJI9IkPhm5vKd-170" target="v022t3RNJI9IkPhm5vKd-268">
          <mxGeometry relative="1" as="geometry">
            <mxPoint x="-650" y="2830" as="sourcePoint" />
            <mxPoint x="-329" y="2830" as="targetPoint" />
          </mxGeometry>
        </mxCell>
        <mxCell id="v022t3RNJI9IkPhm5vKd-268" value="Nineteen" style="rounded=0;whiteSpace=wrap;html=1;" vertex="1" parent="1">
          <mxGeometry x="-570" y="2800" width="120" height="60" as="geometry" />
        </mxCell>
        <mxCell id="v022t3RNJI9IkPhm5vKd-269" value="" style="edgeStyle=orthogonalEdgeStyle;rounded=0;orthogonalLoop=1;jettySize=auto;html=1;" edge="1" parent="1" source="v022t3RNJI9IkPhm5vKd-167" target="v022t3RNJI9IkPhm5vKd-270">
          <mxGeometry relative="1" as="geometry">
            <mxPoint x="-650" y="2950" as="sourcePoint" />
            <mxPoint x="-330" y="2950" as="targetPoint" />
          </mxGeometry>
        </mxCell>
        <mxCell id="v022t3RNJI9IkPhm5vKd-270" value="Twenty" style="rounded=0;whiteSpace=wrap;html=1;" vertex="1" parent="1">
          <mxGeometry x="-570" y="2920" width="120" height="60" as="geometry" />
        </mxCell>
        <mxCell id="v022t3RNJI9IkPhm5vKd-271" value="" style="edgeStyle=orthogonalEdgeStyle;rounded=0;orthogonalLoop=1;jettySize=auto;html=1;" edge="1" parent="1" source="v022t3RNJI9IkPhm5vKd-176" target="v022t3RNJI9IkPhm5vKd-272">
          <mxGeometry relative="1" as="geometry">
            <mxPoint x="-650" y="3080" as="sourcePoint" />
            <mxPoint x="-330" y="3080" as="targetPoint" />
          </mxGeometry>
        </mxCell>
        <mxCell id="v022t3RNJI9IkPhm5vKd-272" value="Twenty-One" style="rounded=0;whiteSpace=wrap;html=1;" vertex="1" parent="1">
          <mxGeometry x="-570" y="3050" width="120" height="60" as="geometry" />
        </mxCell>
        <mxCell id="v022t3RNJI9IkPhm5vKd-273" value="" style="edgeStyle=orthogonalEdgeStyle;rounded=0;orthogonalLoop=1;jettySize=auto;html=1;" edge="1" parent="1" source="v022t3RNJI9IkPhm5vKd-173" target="v022t3RNJI9IkPhm5vKd-274">
          <mxGeometry relative="1" as="geometry">
            <mxPoint x="-650" y="3210" as="sourcePoint" />
            <mxPoint x="-330" y="3210" as="targetPoint" />
          </mxGeometry>
        </mxCell>
        <mxCell id="v022t3RNJI9IkPhm5vKd-274" value="Twenty-Two" style="rounded=0;whiteSpace=wrap;html=1;" vertex="1" parent="1">
          <mxGeometry x="-570" y="3180" width="120" height="60" as="geometry" />
        </mxCell>
        <mxCell id="v022t3RNJI9IkPhm5vKd-275" value="" style="edgeStyle=orthogonalEdgeStyle;rounded=0;orthogonalLoop=1;jettySize=auto;html=1;" edge="1" parent="1" source="v022t3RNJI9IkPhm5vKd-179" target="v022t3RNJI9IkPhm5vKd-276">
          <mxGeometry relative="1" as="geometry">
            <mxPoint x="-650" y="3350" as="sourcePoint" />
            <mxPoint x="-330" y="3350" as="targetPoint" />
          </mxGeometry>
        </mxCell>
        <mxCell id="v022t3RNJI9IkPhm5vKd-276" value="Twenty-Three" style="rounded=0;whiteSpace=wrap;html=1;" vertex="1" parent="1">
          <mxGeometry x="-570" y="3320" width="120" height="60" as="geometry" />
        </mxCell>
        <mxCell id="v022t3RNJI9IkPhm5vKd-277" value="" style="edgeStyle=orthogonalEdgeStyle;rounded=0;orthogonalLoop=1;jettySize=auto;html=1;" edge="1" parent="1" source="v022t3RNJI9IkPhm5vKd-182" target="v022t3RNJI9IkPhm5vKd-278">
          <mxGeometry relative="1" as="geometry">
            <mxPoint x="-650" y="3500" as="sourcePoint" />
            <mxPoint x="-330" y="3500" as="targetPoint" />
          </mxGeometry>
        </mxCell>
        <mxCell id="v022t3RNJI9IkPhm5vKd-278" value="Twenty-Four" style="rounded=0;whiteSpace=wrap;html=1;" vertex="1" parent="1">
          <mxGeometry x="-570" y="3470" width="120" height="60" as="geometry" />
        </mxCell>
        <mxCell id="v022t3RNJI9IkPhm5vKd-279" value="" style="edgeStyle=orthogonalEdgeStyle;rounded=0;orthogonalLoop=1;jettySize=auto;html=1;" edge="1" parent="1" source="v022t3RNJI9IkPhm5vKd-185" target="v022t3RNJI9IkPhm5vKd-280">
          <mxGeometry relative="1" as="geometry">
            <mxPoint x="-650" y="3640" as="sourcePoint" />
            <mxPoint x="-330" y="3640" as="targetPoint" />
          </mxGeometry>
        </mxCell>
        <mxCell id="v022t3RNJI9IkPhm5vKd-280" value="Twenty-Five" style="rounded=0;whiteSpace=wrap;html=1;" vertex="1" parent="1">
          <mxGeometry x="-570" y="3610" width="120" height="60" as="geometry" />
        </mxCell>
        <mxCell id="v022t3RNJI9IkPhm5vKd-281" value="" style="edgeStyle=orthogonalEdgeStyle;rounded=0;orthogonalLoop=1;jettySize=auto;html=1;" edge="1" parent="1" source="v022t3RNJI9IkPhm5vKd-188" target="v022t3RNJI9IkPhm5vKd-282">
          <mxGeometry relative="1" as="geometry">
            <mxPoint x="-650" y="3780" as="sourcePoint" />
            <mxPoint x="-330" y="3780" as="targetPoint" />
          </mxGeometry>
        </mxCell>
        <mxCell id="v022t3RNJI9IkPhm5vKd-282" value="Twenty-Six" style="rounded=0;whiteSpace=wrap;html=1;" vertex="1" parent="1">
          <mxGeometry x="-570" y="3750" width="120" height="60" as="geometry" />
        </mxCell>
        <mxCell id="v022t3RNJI9IkPhm5vKd-283" value="" style="edgeStyle=orthogonalEdgeStyle;rounded=0;orthogonalLoop=1;jettySize=auto;html=1;" edge="1" parent="1" source="v022t3RNJI9IkPhm5vKd-191" target="v022t3RNJI9IkPhm5vKd-284">
          <mxGeometry relative="1" as="geometry">
            <mxPoint x="-650" y="3920" as="sourcePoint" />
            <mxPoint x="-330" y="3920" as="targetPoint" />
          </mxGeometry>
        </mxCell>
        <mxCell id="v022t3RNJI9IkPhm5vKd-284" value="Twenty-Seven" style="rounded=0;whiteSpace=wrap;html=1;" vertex="1" parent="1">
          <mxGeometry x="-570" y="3890" width="120" height="60" as="geometry" />
        </mxCell>
        <mxCell id="v022t3RNJI9IkPhm5vKd-285" value="" style="edgeStyle=orthogonalEdgeStyle;rounded=0;orthogonalLoop=1;jettySize=auto;html=1;" edge="1" parent="1" source="v022t3RNJI9IkPhm5vKd-194" target="v022t3RNJI9IkPhm5vKd-286">
          <mxGeometry relative="1" as="geometry">
            <mxPoint x="-650" y="4060" as="sourcePoint" />
            <mxPoint x="-330" y="4060" as="targetPoint" />
          </mxGeometry>
        </mxCell>
        <mxCell id="v022t3RNJI9IkPhm5vKd-286" value="Twenty-Eight" style="rounded=0;whiteSpace=wrap;html=1;" vertex="1" parent="1">
          <mxGeometry x="-570" y="4030" width="120" height="60" as="geometry" />
        </mxCell>
        <mxCell id="v022t3RNJI9IkPhm5vKd-287" value="" style="edgeStyle=orthogonalEdgeStyle;rounded=0;orthogonalLoop=1;jettySize=auto;html=1;" edge="1" parent="1" source="v022t3RNJI9IkPhm5vKd-197" target="v022t3RNJI9IkPhm5vKd-288">
          <mxGeometry relative="1" as="geometry">
            <mxPoint x="-650" y="4190" as="sourcePoint" />
            <mxPoint x="-330" y="4190" as="targetPoint" />
          </mxGeometry>
        </mxCell>
        <mxCell id="v022t3RNJI9IkPhm5vKd-288" value="Twenty-Nine" style="rounded=0;whiteSpace=wrap;html=1;" vertex="1" parent="1">
          <mxGeometry x="-570" y="4160" width="120" height="60" as="geometry" />
        </mxCell>
        <mxCell id="v022t3RNJI9IkPhm5vKd-289" value="" style="edgeStyle=orthogonalEdgeStyle;rounded=0;orthogonalLoop=1;jettySize=auto;html=1;" edge="1" parent="1" source="v022t3RNJI9IkPhm5vKd-200" target="v022t3RNJI9IkPhm5vKd-290">
          <mxGeometry relative="1" as="geometry">
            <mxPoint x="-650" y="4320" as="sourcePoint" />
            <mxPoint x="-330" y="4320" as="targetPoint" />
          </mxGeometry>
        </mxCell>
        <mxCell id="v022t3RNJI9IkPhm5vKd-290" value="Thirty" style="rounded=0;whiteSpace=wrap;html=1;" vertex="1" parent="1">
          <mxGeometry x="-570" y="4290" width="120" height="60" as="geometry" />
        </mxCell>
        <mxCell id="v022t3RNJI9IkPhm5vKd-295" value="" style="edgeStyle=orthogonalEdgeStyle;rounded=0;orthogonalLoop=1;jettySize=auto;html=1;" edge="1" parent="1" source="v022t3RNJI9IkPhm5vKd-292" target="v022t3RNJI9IkPhm5vKd-294">
          <mxGeometry relative="1" as="geometry" />
        </mxCell>
        <mxCell id="v022t3RNJI9IkPhm5vKd-292" value="" style="ellipse;whiteSpace=wrap;html=1;aspect=fixed;" vertex="1" parent="1">
          <mxGeometry x="-722.5" y="4410" width="25" height="25" as="geometry" />
        </mxCell>
        <mxCell id="v022t3RNJI9IkPhm5vKd-294" value="END" style="ellipse;whiteSpace=wrap;html=1;" vertex="1" parent="1">
          <mxGeometry x="-770" y="4500" width="120" height="80" as="geometry" />
        </mxCell>
        <mxCell id="v022t3RNJI9IkPhm5vKd-302" value="" style="edgeStyle=orthogonalEdgeStyle;rounded=0;orthogonalLoop=1;jettySize=auto;html=1;" edge="1" parent="1" source="v022t3RNJI9IkPhm5vKd-296" target="v022t3RNJI9IkPhm5vKd-297">
          <mxGeometry relative="1" as="geometry" />
        </mxCell>
        <mxCell id="v022t3RNJI9IkPhm5vKd-296" value="เลขเป็นคำ" style="ellipse;whiteSpace=wrap;html=1;" vertex="1" parent="1">
          <mxGeometry x="-170" y="40" width="120" height="80" as="geometry" />
        </mxCell>
        <mxCell id="v022t3RNJI9IkPhm5vKd-303" value="" style="edgeStyle=orthogonalEdgeStyle;rounded=0;orthogonalLoop=1;jettySize=auto;html=1;" edge="1" parent="1" source="v022t3RNJI9IkPhm5vKd-297" target="v022t3RNJI9IkPhm5vKd-298">
          <mxGeometry relative="1" as="geometry" />
        </mxCell>
        <mxCell id="v022t3RNJI9IkPhm5vKd-297" value="รับข้อมูลUser" style="shape=parallelogram;perimeter=parallelogramPerimeter;whiteSpace=wrap;html=1;fixedSize=1;" vertex="1" parent="1">
          <mxGeometry x="-205" y="150" width="190" height="60" as="geometry" />
        </mxCell>
        <mxCell id="v022t3RNJI9IkPhm5vKd-304" value="" style="edgeStyle=orthogonalEdgeStyle;rounded=0;orthogonalLoop=1;jettySize=auto;html=1;" edge="1" parent="1" source="v022t3RNJI9IkPhm5vKd-298" target="v022t3RNJI9IkPhm5vKd-301">
          <mxGeometry relative="1" as="geometry" />
        </mxCell>
        <mxCell id="v022t3RNJI9IkPhm5vKd-298" value="เลขเป็นคำ" style="shape=process;whiteSpace=wrap;html=1;backgroundOutline=1;" vertex="1" parent="1">
          <mxGeometry x="-195" y="260" width="170" height="60" as="geometry" />
        </mxCell>
        <mxCell id="v022t3RNJI9IkPhm5vKd-299" value="END" style="ellipse;whiteSpace=wrap;html=1;" vertex="1" parent="1">
          <mxGeometry x="-170" y="480" width="120" height="80" as="geometry" />
        </mxCell>
        <mxCell id="v022t3RNJI9IkPhm5vKd-305" value="" style="edgeStyle=orthogonalEdgeStyle;rounded=0;orthogonalLoop=1;jettySize=auto;html=1;" edge="1" parent="1" source="v022t3RNJI9IkPhm5vKd-301" target="v022t3RNJI9IkPhm5vKd-299">
          <mxGeometry relative="1" as="geometry" />
        </mxCell>
        <mxCell id="v022t3RNJI9IkPhm5vKd-301" value="แสดงเลขที่ถูกแปลง" style="shape=parallelogram;perimeter=parallelogramPerimeter;whiteSpace=wrap;html=1;fixedSize=1;" vertex="1" parent="1">
          <mxGeometry x="-205" y="370" width="190" height="60" as="geometry" />
        </mxCell>
      </root>
    </mxGraphModel>
  </diagram>
</mxfile>
